<svg xmlns="http://www.w3.org/2000/svg" xmlns:xlink="http://www.w3.org/1999/xlink" width="500" zoomAndPan="magnify" viewBox="0 0 375 374.999991" height="500" preserveAspectRatio="xMidYMid meet" version="1.0"><defs><g/><clipPath id="2a98e2e40b"><path d="M 170 95 L 204 95 L 204 220 L 170 220 Z M 170 95 " clip-rule="nonzero"/></clipPath><clipPath id="f4a1837574"><path d="M 188.554688 28.195312 L 316.367188 156.003906 L 186.433594 285.933594 L 58.625 158.125 Z M 188.554688 28.195312 " clip-rule="nonzero"/></clipPath><clipPath id="5b7ab79052"><path d="M 188.554688 28.195312 L 316.367188 156.003906 L 186.433594 285.933594 L 58.625 158.125 Z M 188.554688 28.195312 " clip-rule="nonzero"/></clipPath><clipPath id="460bf4a34e"><path d="M 188.554688 28.195312 L 316.367188 156.003906 L 186.433594 285.933594 L 58.625 158.125 Z M 188.554688 28.195312 " clip-rule="nonzero"/></clipPath><clipPath id="60921f9187"><path d="M 170 93 L 205 93 L 205 221 L 170 221 Z M 170 93 " clip-rule="nonzero"/></clipPath><clipPath id="06cbd00464"><path d="M 188.554688 28.195312 L 316.367188 156.003906 L 186.433594 285.933594 L 58.625 158.125 Z M 188.554688 28.195312 " clip-rule="nonzero"/></clipPath><clipPath id="80d86a8ad5"><path d="M 188.554688 28.195312 L 316.367188 156.003906 L 186.433594 285.933594 L 58.625 158.125 Z M 188.554688 28.195312 " clip-rule="nonzero"/></clipPath><clipPath id="791a82d388"><path d="M 188.554688 28.195312 L 316.367188 156.003906 L 186.433594 285.933594 L 58.625 158.125 Z M 188.554688 28.195312 " clip-rule="nonzero"/></clipPath><clipPath id="9c68797721"><path d="M 169 92 L 206 92 L 206 223 L 169 223 Z M 169 92 " clip-rule="nonzero"/></clipPath><clipPath id="f6c77335cc"><path d="M 188.554688 28.195312 L 316.367188 156.003906 L 186.433594 285.933594 L 58.625 158.125 Z M 188.554688 28.195312 " clip-rule="nonzero"/></clipPath><clipPath id="11cf307eaf"><path d="M 188.554688 28.195312 L 316.367188 156.003906 L 186.433594 285.933594 L 58.625 158.125 Z M 188.554688 28.195312 " clip-rule="nonzero"/></clipPath><clipPath id="f5a4480c56"><path d="M 188.554688 28.195312 L 316.367188 156.003906 L 186.433594 285.933594 L 58.625 158.125 Z M 188.554688 28.195312 " clip-rule="nonzero"/></clipPath><clipPath id="cb621d9bca"><path d="M 168 90 L 207 90 L 207 224 L 168 224 Z M 168 90 " clip-rule="nonzero"/></clipPath><clipPath id="819d03891f"><path d="M 188.554688 28.195312 L 316.367188 156.003906 L 186.433594 285.933594 L 58.625 158.125 Z M 188.554688 28.195312 " clip-rule="nonzero"/></clipPath><clipPath id="049232fe8e"><path d="M 188.554688 28.195312 L 316.367188 156.003906 L 186.433594 285.933594 L 58.625 158.125 Z M 188.554688 28.195312 " clip-rule="nonzero"/></clipPath><clipPath id="4bc16e390c"><path d="M 188.554688 28.195312 L 316.367188 156.003906 L 186.433594 285.933594 L 58.625 158.125 Z M 188.554688 28.195312 " clip-rule="nonzero"/></clipPath><clipPath id="6a0908fc13"><path d="M 167 89 L 208 89 L 208 226 L 167 226 Z M 167 89 " clip-rule="nonzero"/></clipPath><clipPath id="76ef72ca54"><path d="M 188.554688 28.195312 L 316.367188 156.003906 L 186.433594 285.933594 L 58.625 158.125 Z M 188.554688 28.195312 " clip-rule="nonzero"/></clipPath><clipPath id="3f4c6a53b2"><path d="M 188.554688 28.195312 L 316.367188 156.003906 L 186.433594 285.933594 L 58.625 158.125 Z M 188.554688 28.195312 " clip-rule="nonzero"/></clipPath><clipPath id="4f5ff557c5"><path d="M 188.554688 28.195312 L 316.367188 156.003906 L 186.433594 285.933594 L 58.625 158.125 Z M 188.554688 28.195312 " clip-rule="nonzero"/></clipPath><clipPath id="f6d78a11cd"><path d="M 166 87 L 209 87 L 209 227 L 166 227 Z M 166 87 " clip-rule="nonzero"/></clipPath><clipPath id="0af4be8e0c"><path d="M 188.554688 28.195312 L 316.367188 156.003906 L 186.433594 285.933594 L 58.625 158.125 Z M 188.554688 28.195312 " clip-rule="nonzero"/></clipPath><clipPath id="4cfd597e73"><path d="M 188.554688 28.195312 L 316.367188 156.003906 L 186.433594 285.933594 L 58.625 158.125 Z M 188.554688 28.195312 " clip-rule="nonzero"/></clipPath><clipPath id="84a74f697c"><path d="M 188.554688 28.195312 L 316.367188 156.003906 L 186.433594 285.933594 L 58.625 158.125 Z M 188.554688 28.195312 " clip-rule="nonzero"/></clipPath><clipPath id="1996359632"><path d="M 165 86 L 210 86 L 210 229 L 165 229 Z M 165 86 " clip-rule="nonzero"/></clipPath><clipPath id="3d8ade3c75"><path d="M 188.554688 28.195312 L 316.367188 156.003906 L 186.433594 285.933594 L 58.625 158.125 Z M 188.554688 28.195312 " clip-rule="nonzero"/></clipPath><clipPath id="27a91b577a"><path d="M 188.554688 28.195312 L 316.367188 156.003906 L 186.433594 285.933594 L 58.625 158.125 Z M 188.554688 28.195312 " clip-rule="nonzero"/></clipPath><clipPath id="be8e55a575"><path d="M 188.554688 28.195312 L 316.367188 156.003906 L 186.433594 285.933594 L 58.625 158.125 Z M 188.554688 28.195312 " clip-rule="nonzero"/></clipPath><clipPath id="7b52c67652"><path d="M 163 84 L 211 84 L 211 230 L 163 230 Z M 163 84 " clip-rule="nonzero"/></clipPath><clipPath id="b4026046d4"><path d="M 188.554688 28.195312 L 316.367188 156.003906 L 186.433594 285.933594 L 58.625 158.125 Z M 188.554688 28.195312 " clip-rule="nonzero"/></clipPath><clipPath id="388df27144"><path d="M 188.554688 28.195312 L 316.367188 156.003906 L 186.433594 285.933594 L 58.625 158.125 Z M 188.554688 28.195312 " clip-rule="nonzero"/></clipPath><clipPath id="953fa60ea9"><path d="M 188.554688 28.195312 L 316.367188 156.003906 L 186.433594 285.933594 L 58.625 158.125 Z M 188.554688 28.195312 " clip-rule="nonzero"/></clipPath><clipPath id="fca9cb7dcd"><path d="M 162 83 L 213 83 L 213 231 L 162 231 Z M 162 83 " clip-rule="nonzero"/></clipPath><clipPath id="09b11dfc3c"><path d="M 188.554688 28.195312 L 316.367188 156.003906 L 186.433594 285.933594 L 58.625 158.125 Z M 188.554688 28.195312 " clip-rule="nonzero"/></clipPath><clipPath id="9d7797e9d6"><path d="M 188.554688 28.195312 L 316.367188 156.003906 L 186.433594 285.933594 L 58.625 158.125 Z M 188.554688 28.195312 " clip-rule="nonzero"/></clipPath><clipPath id="2d6c30de57"><path d="M 188.554688 28.195312 L 316.367188 156.003906 L 186.433594 285.933594 L 58.625 158.125 Z M 188.554688 28.195312 " clip-rule="nonzero"/></clipPath><clipPath id="3468ebd780"><path d="M 160 82 L 215 82 L 215 233 L 160 233 Z M 160 82 " clip-rule="nonzero"/></clipPath><clipPath id="deb9988285"><path d="M 188.554688 28.195312 L 316.367188 156.003906 L 186.433594 285.933594 L 58.625 158.125 Z M 188.554688 28.195312 " clip-rule="nonzero"/></clipPath><clipPath id="f2e62ecf3b"><path d="M 188.554688 28.195312 L 316.367188 156.003906 L 186.433594 285.933594 L 58.625 158.125 Z M 188.554688 28.195312 " clip-rule="nonzero"/></clipPath><clipPath id="d74aeb35dd"><path d="M 188.554688 28.195312 L 316.367188 156.003906 L 186.433594 285.933594 L 58.625 158.125 Z M 188.554688 28.195312 " clip-rule="nonzero"/></clipPath><clipPath id="0411b30dc2"><path d="M 158 81 L 216 81 L 216 234 L 158 234 Z M 158 81 " clip-rule="nonzero"/></clipPath><clipPath id="d5e24fcb3d"><path d="M 188.554688 28.195312 L 316.367188 156.003906 L 186.433594 285.933594 L 58.625 158.125 Z M 188.554688 28.195312 " clip-rule="nonzero"/></clipPath><clipPath id="0730f1a361"><path d="M 188.554688 28.195312 L 316.367188 156.003906 L 186.433594 285.933594 L 58.625 158.125 Z M 188.554688 28.195312 " clip-rule="nonzero"/></clipPath><clipPath id="0624eb513f"><path d="M 188.554688 28.195312 L 316.367188 156.003906 L 186.433594 285.933594 L 58.625 158.125 Z M 188.554688 28.195312 " clip-rule="nonzero"/></clipPath><clipPath id="95142cc578"><path d="M 157 80 L 218 80 L 218 235 L 157 235 Z M 157 80 " clip-rule="nonzero"/></clipPath><clipPath id="6c6f3a3174"><path d="M 188.554688 28.195312 L 316.367188 156.003906 L 186.433594 285.933594 L 58.625 158.125 Z M 188.554688 28.195312 " clip-rule="nonzero"/></clipPath><clipPath id="1dfcee5e1b"><path d="M 188.554688 28.195312 L 316.367188 156.003906 L 186.433594 285.933594 L 58.625 158.125 Z M 188.554688 28.195312 " clip-rule="nonzero"/></clipPath><clipPath id="b0a165f729"><path d="M 188.554688 28.195312 L 316.367188 156.003906 L 186.433594 285.933594 L 58.625 158.125 Z M 188.554688 28.195312 " clip-rule="nonzero"/></clipPath><clipPath id="3b1c95b93a"><path d="M 155 79 L 220 79 L 220 235 L 155 235 Z M 155 79 " clip-rule="nonzero"/></clipPath><clipPath id="b0c7300570"><path d="M 188.554688 28.195312 L 316.367188 156.003906 L 186.433594 285.933594 L 58.625 158.125 Z M 188.554688 28.195312 " clip-rule="nonzero"/></clipPath><clipPath id="632abf010b"><path d="M 188.554688 28.195312 L 316.367188 156.003906 L 186.433594 285.933594 L 58.625 158.125 Z M 188.554688 28.195312 " clip-rule="nonzero"/></clipPath><clipPath id="efa2dadcf2"><path d="M 188.554688 28.195312 L 316.367188 156.003906 L 186.433594 285.933594 L 58.625 158.125 Z M 188.554688 28.195312 " clip-rule="nonzero"/></clipPath><clipPath id="b74e3b4750"><path d="M 153 78 L 222 78 L 222 236 L 153 236 Z M 153 78 " clip-rule="nonzero"/></clipPath><clipPath id="ebdd7b2345"><path d="M 188.554688 28.195312 L 316.367188 156.003906 L 186.433594 285.933594 L 58.625 158.125 Z M 188.554688 28.195312 " clip-rule="nonzero"/></clipPath><clipPath id="bd7b98ca68"><path d="M 188.554688 28.195312 L 316.367188 156.003906 L 186.433594 285.933594 L 58.625 158.125 Z M 188.554688 28.195312 " clip-rule="nonzero"/></clipPath><clipPath id="275fe1c008"><path d="M 188.554688 28.195312 L 316.367188 156.003906 L 186.433594 285.933594 L 58.625 158.125 Z M 188.554688 28.195312 " clip-rule="nonzero"/></clipPath><clipPath id="5165cbc5a2"><path d="M 151 78 L 224 78 L 224 237 L 151 237 Z M 151 78 " clip-rule="nonzero"/></clipPath><clipPath id="506d151024"><path d="M 188.554688 28.195312 L 316.367188 156.003906 L 186.433594 285.933594 L 58.625 158.125 Z M 188.554688 28.195312 " clip-rule="nonzero"/></clipPath><clipPath id="db4ae6d07a"><path d="M 188.554688 28.195312 L 316.367188 156.003906 L 186.433594 285.933594 L 58.625 158.125 Z M 188.554688 28.195312 " clip-rule="nonzero"/></clipPath><clipPath id="f201231974"><path d="M 188.554688 28.195312 L 316.367188 156.003906 L 186.433594 285.933594 L 58.625 158.125 Z M 188.554688 28.195312 " clip-rule="nonzero"/></clipPath><clipPath id="0ab73ab7f4"><path d="M 149 77 L 226 77 L 226 238 L 149 238 Z M 149 77 " clip-rule="nonzero"/></clipPath><clipPath id="c36f9839c1"><path d="M 188.554688 28.195312 L 316.367188 156.003906 L 186.433594 285.933594 L 58.625 158.125 Z M 188.554688 28.195312 " clip-rule="nonzero"/></clipPath><clipPath id="1e112f4ef9"><path d="M 188.554688 28.195312 L 316.367188 156.003906 L 186.433594 285.933594 L 58.625 158.125 Z M 188.554688 28.195312 " clip-rule="nonzero"/></clipPath><clipPath id="109fdd4d12"><path d="M 188.554688 28.195312 L 316.367188 156.003906 L 186.433594 285.933594 L 58.625 158.125 Z M 188.554688 28.195312 " clip-rule="nonzero"/></clipPath><clipPath id="340cfb84ae"><path d="M 146 76 L 228 76 L 228 238 L 146 238 Z M 146 76 " clip-rule="nonzero"/></clipPath><clipPath id="83e0da6a9d"><path d="M 188.554688 28.195312 L 316.367188 156.003906 L 186.433594 285.933594 L 58.625 158.125 Z M 188.554688 28.195312 " clip-rule="nonzero"/></clipPath><clipPath id="b082dadb79"><path d="M 188.554688 28.195312 L 316.367188 156.003906 L 186.433594 285.933594 L 58.625 158.125 Z M 188.554688 28.195312 " clip-rule="nonzero"/></clipPath><clipPath id="8aaf9d5e2d"><path d="M 188.554688 28.195312 L 316.367188 156.003906 L 186.433594 285.933594 L 58.625 158.125 Z M 188.554688 28.195312 " clip-rule="nonzero"/></clipPath><clipPath id="ae6bbdc6ac"><path d="M 144 76 L 231 76 L 231 238 L 144 238 Z M 144 76 " clip-rule="nonzero"/></clipPath><clipPath id="44b287836a"><path d="M 188.554688 28.195312 L 316.367188 156.003906 L 186.433594 285.933594 L 58.625 158.125 Z M 188.554688 28.195312 " clip-rule="nonzero"/></clipPath><clipPath id="bcc2b254d5"><path d="M 188.554688 28.195312 L 316.367188 156.003906 L 186.433594 285.933594 L 58.625 158.125 Z M 188.554688 28.195312 " clip-rule="nonzero"/></clipPath><clipPath id="628b5ced82"><path d="M 188.554688 28.195312 L 316.367188 156.003906 L 186.433594 285.933594 L 58.625 158.125 Z M 188.554688 28.195312 " clip-rule="nonzero"/></clipPath><clipPath id="5dfeb5d9bb"><path d="M 142 76 L 233 76 L 233 239 L 142 239 Z M 142 76 " clip-rule="nonzero"/></clipPath><clipPath id="2afc53c836"><path d="M 188.554688 28.195312 L 316.367188 156.003906 L 186.433594 285.933594 L 58.625 158.125 Z M 188.554688 28.195312 " clip-rule="nonzero"/></clipPath><clipPath id="c5f83de22f"><path d="M 188.554688 28.195312 L 316.367188 156.003906 L 186.433594 285.933594 L 58.625 158.125 Z M 188.554688 28.195312 " clip-rule="nonzero"/></clipPath><clipPath id="24e5dee521"><path d="M 188.554688 28.195312 L 316.367188 156.003906 L 186.433594 285.933594 L 58.625 158.125 Z M 188.554688 28.195312 " clip-rule="nonzero"/></clipPath><clipPath id="a736e91ba3"><path d="M 139 75 L 236 75 L 236 239 L 139 239 Z M 139 75 " clip-rule="nonzero"/></clipPath><clipPath id="33b8469de8"><path d="M 188.554688 28.195312 L 316.367188 156.003906 L 186.433594 285.933594 L 58.625 158.125 Z M 188.554688 28.195312 " clip-rule="nonzero"/></clipPath><clipPath id="21ed36d2ac"><path d="M 188.554688 28.195312 L 316.367188 156.003906 L 186.433594 285.933594 L 58.625 158.125 Z M 188.554688 28.195312 " clip-rule="nonzero"/></clipPath><clipPath id="0b0af1094d"><path d="M 188.554688 28.195312 L 316.367188 156.003906 L 186.433594 285.933594 L 58.625 158.125 Z M 188.554688 28.195312 " clip-rule="nonzero"/></clipPath><clipPath id="cfde29f6a3"><path d="M 137 75 L 238 75 L 238 239 L 137 239 Z M 137 75 " clip-rule="nonzero"/></clipPath><clipPath id="cc9eb84aaa"><path d="M 188.554688 28.195312 L 316.367188 156.003906 L 186.433594 285.933594 L 58.625 158.125 Z M 188.554688 28.195312 " clip-rule="nonzero"/></clipPath><clipPath id="b4d2a4d0d9"><path d="M 188.554688 28.195312 L 316.367188 156.003906 L 186.433594 285.933594 L 58.625 158.125 Z M 188.554688 28.195312 " clip-rule="nonzero"/></clipPath><clipPath id="919d09ac9a"><path d="M 188.554688 28.195312 L 316.367188 156.003906 L 186.433594 285.933594 L 58.625 158.125 Z M 188.554688 28.195312 " clip-rule="nonzero"/></clipPath><clipPath id="6f2752b222"><path d="M 134 75 L 241 75 L 241 239 L 134 239 Z M 134 75 " clip-rule="nonzero"/></clipPath><clipPath id="0a5c3ef0dd"><path d="M 188.554688 28.195312 L 316.367188 156.003906 L 186.433594 285.933594 L 58.625 158.125 Z M 188.554688 28.195312 " clip-rule="nonzero"/></clipPath><clipPath id="feccf868e0"><path d="M 188.554688 28.195312 L 316.367188 156.003906 L 186.433594 285.933594 L 58.625 158.125 Z M 188.554688 28.195312 " clip-rule="nonzero"/></clipPath><clipPath id="7789bdcc2e"><path d="M 188.554688 28.195312 L 316.367188 156.003906 L 186.433594 285.933594 L 58.625 158.125 Z M 188.554688 28.195312 " clip-rule="nonzero"/></clipPath><clipPath id="d4a7a5da20"><path d="M 131 75 L 243 75 L 243 239 L 131 239 Z M 131 75 " clip-rule="nonzero"/></clipPath><clipPath id="a520e000db"><path d="M 188.554688 28.195312 L 316.367188 156.003906 L 186.433594 285.933594 L 58.625 158.125 Z M 188.554688 28.195312 " clip-rule="nonzero"/></clipPath><clipPath id="f0cabc7dfb"><path d="M 188.554688 28.195312 L 316.367188 156.003906 L 186.433594 285.933594 L 58.625 158.125 Z M 188.554688 28.195312 " clip-rule="nonzero"/></clipPath><clipPath id="05f982f859"><path d="M 188.554688 28.195312 L 316.367188 156.003906 L 186.433594 285.933594 L 58.625 158.125 Z M 188.554688 28.195312 " clip-rule="nonzero"/></clipPath><clipPath id="29bb27ea85"><path d="M 129 75 L 246 75 L 246 239 L 129 239 Z M 129 75 " clip-rule="nonzero"/></clipPath><clipPath id="e95efc512e"><path d="M 188.554688 28.195312 L 316.367188 156.003906 L 186.433594 285.933594 L 58.625 158.125 Z M 188.554688 28.195312 " clip-rule="nonzero"/></clipPath><clipPath id="ffd8653e18"><path d="M 188.554688 28.195312 L 316.367188 156.003906 L 186.433594 285.933594 L 58.625 158.125 Z M 188.554688 28.195312 " clip-rule="nonzero"/></clipPath><clipPath id="01b44cc4c4"><path d="M 188.554688 28.195312 L 316.367188 156.003906 L 186.433594 285.933594 L 58.625 158.125 Z M 188.554688 28.195312 " clip-rule="nonzero"/></clipPath><clipPath id="d923af195a"><path d="M 126 75 L 249 75 L 249 239 L 126 239 Z M 126 75 " clip-rule="nonzero"/></clipPath><clipPath id="0a34228bfb"><path d="M 188.554688 28.195312 L 316.367188 156.003906 L 186.433594 285.933594 L 58.625 158.125 Z M 188.554688 28.195312 " clip-rule="nonzero"/></clipPath><clipPath id="ae9e8fba4d"><path d="M 188.554688 28.195312 L 316.367188 156.003906 L 186.433594 285.933594 L 58.625 158.125 Z M 188.554688 28.195312 " clip-rule="nonzero"/></clipPath><clipPath id="3186aa19f6"><path d="M 188.554688 28.195312 L 316.367188 156.003906 L 186.433594 285.933594 L 58.625 158.125 Z M 188.554688 28.195312 " clip-rule="nonzero"/></clipPath><clipPath id="8cb853db4e"><path d="M 123 75 L 252 75 L 252 239 L 123 239 Z M 123 75 " clip-rule="nonzero"/></clipPath><clipPath id="dc752d841b"><path d="M 188.554688 28.195312 L 316.367188 156.003906 L 186.433594 285.933594 L 58.625 158.125 Z M 188.554688 28.195312 " clip-rule="nonzero"/></clipPath><clipPath id="41bc2407fe"><path d="M 188.554688 28.195312 L 316.367188 156.003906 L 186.433594 285.933594 L 58.625 158.125 Z M 188.554688 28.195312 " clip-rule="nonzero"/></clipPath><clipPath id="7a4ccc1119"><path d="M 188.554688 28.195312 L 316.367188 156.003906 L 186.433594 285.933594 L 58.625 158.125 Z M 188.554688 28.195312 " clip-rule="nonzero"/></clipPath><clipPath id="a358590324"><path d="M 120 75 L 255 75 L 255 239 L 120 239 Z M 120 75 " clip-rule="nonzero"/></clipPath><clipPath id="1f983cb95b"><path d="M 188.554688 28.195312 L 316.367188 156.003906 L 186.433594 285.933594 L 58.625 158.125 Z M 188.554688 28.195312 " clip-rule="nonzero"/></clipPath><clipPath id="eef526e486"><path d="M 188.554688 28.195312 L 316.367188 156.003906 L 186.433594 285.933594 L 58.625 158.125 Z M 188.554688 28.195312 " clip-rule="nonzero"/></clipPath><clipPath id="d8bf568934"><path d="M 188.554688 28.195312 L 316.367188 156.003906 L 186.433594 285.933594 L 58.625 158.125 Z M 188.554688 28.195312 " clip-rule="nonzero"/></clipPath><clipPath id="6b390e47c1"><path d="M 117 75 L 257 75 L 257 240 L 117 240 Z M 117 75 " clip-rule="nonzero"/></clipPath><clipPath id="229af2b7c8"><path d="M 188.554688 28.195312 L 316.367188 156.003906 L 186.433594 285.933594 L 58.625 158.125 Z M 188.554688 28.195312 " clip-rule="nonzero"/></clipPath><clipPath id="c1e480fa2b"><path d="M 188.554688 28.195312 L 316.367188 156.003906 L 186.433594 285.933594 L 58.625 158.125 Z M 188.554688 28.195312 " clip-rule="nonzero"/></clipPath><clipPath id="6fb5f1283d"><path d="M 188.554688 28.195312 L 316.367188 156.003906 L 186.433594 285.933594 L 58.625 158.125 Z M 188.554688 28.195312 " clip-rule="nonzero"/></clipPath><clipPath id="e80540918d"><path d="M 114 75 L 260 75 L 260 240 L 114 240 Z M 114 75 " clip-rule="nonzero"/></clipPath><clipPath id="9581f34eea"><path d="M 188.554688 28.195312 L 316.367188 156.003906 L 186.433594 285.933594 L 58.625 158.125 Z M 188.554688 28.195312 " clip-rule="nonzero"/></clipPath><clipPath id="368ce552c1"><path d="M 188.554688 28.195312 L 316.367188 156.003906 L 186.433594 285.933594 L 58.625 158.125 Z M 188.554688 28.195312 " clip-rule="nonzero"/></clipPath><clipPath id="4755889250"><path d="M 188.554688 28.195312 L 316.367188 156.003906 L 186.433594 285.933594 L 58.625 158.125 Z M 188.554688 28.195312 " clip-rule="nonzero"/></clipPath><clipPath id="aa3e514713"><path d="M 111 74 L 263 74 L 263 240 L 111 240 Z M 111 74 " clip-rule="nonzero"/></clipPath><clipPath id="bb5afd024e"><path d="M 188.554688 28.195312 L 316.367188 156.003906 L 186.433594 285.933594 L 58.625 158.125 Z M 188.554688 28.195312 " clip-rule="nonzero"/></clipPath><clipPath id="0bd747513f"><path d="M 188.554688 28.195312 L 316.367188 156.003906 L 186.433594 285.933594 L 58.625 158.125 Z M 188.554688 28.195312 " clip-rule="nonzero"/></clipPath><clipPath id="fc651e5567"><path d="M 188.554688 28.195312 L 316.367188 156.003906 L 186.433594 285.933594 L 58.625 158.125 Z M 188.554688 28.195312 " clip-rule="nonzero"/></clipPath><clipPath id="7a912fd573"><path d="M 108 73 L 266 73 L 266 241 L 108 241 Z M 108 73 " clip-rule="nonzero"/></clipPath><clipPath id="6c71352ab3"><path d="M 188.554688 28.195312 L 316.367188 156.003906 L 186.433594 285.933594 L 58.625 158.125 Z M 188.554688 28.195312 " clip-rule="nonzero"/></clipPath><clipPath id="7698ab6c00"><path d="M 188.554688 28.195312 L 316.367188 156.003906 L 186.433594 285.933594 L 58.625 158.125 Z M 188.554688 28.195312 " clip-rule="nonzero"/></clipPath><clipPath id="d32d4fa652"><path d="M 188.554688 28.195312 L 316.367188 156.003906 L 186.433594 285.933594 L 58.625 158.125 Z M 188.554688 28.195312 " clip-rule="nonzero"/></clipPath><clipPath id="affee8ce24"><path d="M 105 72 L 269 72 L 269 242 L 105 242 Z M 105 72 " clip-rule="nonzero"/></clipPath><clipPath id="45b2c3862f"><path d="M 188.554688 28.195312 L 316.367188 156.003906 L 186.433594 285.933594 L 58.625 158.125 Z M 188.554688 28.195312 " clip-rule="nonzero"/></clipPath><clipPath id="9f4fb3a10e"><path d="M 188.554688 28.195312 L 316.367188 156.003906 L 186.433594 285.933594 L 58.625 158.125 Z M 188.554688 28.195312 " clip-rule="nonzero"/></clipPath><clipPath id="35c5a9988f"><path d="M 188.554688 28.195312 L 316.367188 156.003906 L 186.433594 285.933594 L 58.625 158.125 Z M 188.554688 28.195312 " clip-rule="nonzero"/></clipPath><clipPath id="1179c85462"><path d="M 102 71 L 272 71 L 272 244 L 102 244 Z M 102 71 " clip-rule="nonzero"/></clipPath><clipPath id="bfb6665eec"><path d="M 188.554688 28.195312 L 316.367188 156.003906 L 186.433594 285.933594 L 58.625 158.125 Z M 188.554688 28.195312 " clip-rule="nonzero"/></clipPath><clipPath id="9346071cec"><path d="M 188.554688 28.195312 L 316.367188 156.003906 L 186.433594 285.933594 L 58.625 158.125 Z M 188.554688 28.195312 " clip-rule="nonzero"/></clipPath><clipPath id="fb660678a0"><path d="M 188.554688 28.195312 L 316.367188 156.003906 L 186.433594 285.933594 L 58.625 158.125 Z M 188.554688 28.195312 " clip-rule="nonzero"/></clipPath><clipPath id="ee1607051c"><path d="M 194.339844 36.640625 L 307.84375 150.144531 L 179.910156 278.078125 L 66.40625 164.574219 Z M 194.339844 36.640625 " clip-rule="nonzero"/></clipPath><clipPath id="b6a2f54b2c"><path d="M 194.339844 36.640625 L 307.84375 150.144531 L 180.222656 277.769531 L 66.71875 164.265625 Z M 194.339844 36.640625 " clip-rule="nonzero"/></clipPath><clipPath id="c1b291a263"><path d="M 100 69 L 275 69 L 275 246 L 100 246 Z M 100 69 " clip-rule="nonzero"/></clipPath><clipPath id="90dfa8e78d"><path d="M 188.554688 28.195312 L 316.367188 156.003906 L 186.433594 285.933594 L 58.625 158.125 Z M 188.554688 28.195312 " clip-rule="nonzero"/></clipPath><clipPath id="49a0ea63e7"><path d="M 188.554688 28.195312 L 316.367188 156.003906 L 186.433594 285.933594 L 58.625 158.125 Z M 188.554688 28.195312 " clip-rule="nonzero"/></clipPath><clipPath id="70317a844c"><path d="M 188.554688 28.195312 L 316.367188 156.003906 L 186.433594 285.933594 L 58.625 158.125 Z M 188.554688 28.195312 " clip-rule="nonzero"/></clipPath><clipPath id="030ed179d2"><path d="M 191.015625 33.3125 L 311.171875 153.472656 L 183.238281 281.40625 L 63.078125 161.25 Z M 191.015625 33.3125 " clip-rule="nonzero"/></clipPath><clipPath id="ee35387b39"><path d="M 191.015625 33.3125 L 311.171875 153.472656 L 183.546875 281.097656 L 63.390625 160.9375 Z M 191.015625 33.3125 " clip-rule="nonzero"/></clipPath><clipPath id="967fd8c2b6"><path d="M 97 67 L 278 67 L 278 248 L 97 248 Z M 97 67 " clip-rule="nonzero"/></clipPath><clipPath id="d919bcc1bb"><path d="M 188.554688 28.195312 L 316.367188 156.003906 L 186.433594 285.933594 L 58.625 158.125 Z M 188.554688 28.195312 " clip-rule="nonzero"/></clipPath><clipPath id="d441cf0fd1"><path d="M 188.554688 28.195312 L 316.367188 156.003906 L 186.433594 285.933594 L 58.625 158.125 Z M 188.554688 28.195312 " clip-rule="nonzero"/></clipPath><clipPath id="435b8e3c91"><path d="M 188.554688 28.195312 L 316.367188 156.003906 L 186.433594 285.933594 L 58.625 158.125 Z M 188.554688 28.195312 " clip-rule="nonzero"/></clipPath></defs><g clip-path="url(#2a98e2e40b)"><g clip-path="url(#f4a1837574)"><g clip-path="url(#5b7ab79052)"><g clip-path="url(#460bf4a34e)"><path fill="#f49617" d="M 192.679688 97.636719 C 191.558594 96.515625 190.390625 95.894531 189.1875 95.8125 C 185.449219 95.5625 181.640625 100.621094 178.464844 110.058594 C 171.125 131.867188 169.214844 170.78125 174.207031 196.800781 C 176.8125 210.382812 180.902344 218.347656 185.4375 218.65625 C 189.175781 218.90625 192.984375 213.847656 196.160156 204.410156 C 203.496094 182.601562 205.40625 143.6875 200.417969 117.667969 C 198.503906 107.6875 195.785156 100.738281 192.679688 97.636719 Z M 181.667969 217.160156 C 178.46875 213.960938 175.691406 206.9375 173.765625 196.886719 C 168.761719 170.800781 170.679688 131.789062 178.039062 109.917969 C 181.285156 100.265625 185.253906 95.097656 189.21875 95.363281 C 193.96875 95.683594 198.210938 103.78125 200.859375 117.582031 C 205.863281 143.667969 203.945312 182.679688 196.585938 204.554688 C 193.339844 214.203125 189.371094 219.371094 185.40625 219.105469 C 184.113281 219.019531 182.863281 218.355469 181.667969 217.160156 " fill-opacity="1" fill-rule="nonzero"/></g></g></g></g><g clip-path="url(#60921f9187)"><g clip-path="url(#06cbd00464)"><g clip-path="url(#80d86a8ad5)"><g clip-path="url(#791a82d388)"><path fill="#f49617" d="M 193.832031 96.011719 C 192.726562 94.90625 191.566406 94.28125 190.363281 94.167969 C 186.582031 93.8125 182.625 98.699219 179.214844 107.925781 C 171.160156 129.734375 168.328125 169.605469 172.902344 196.804688 C 175.339844 211.289062 179.480469 219.851562 184.261719 220.300781 C 188.042969 220.65625 192 215.769531 195.40625 206.542969 C 203.464844 184.734375 206.296875 144.863281 201.722656 117.664062 C 199.898438 106.824219 197.121094 99.300781 193.832031 96.011719 Z M 180.519531 218.789062 C 177.132812 215.402344 174.296875 207.796875 172.457031 196.878906 C 167.875 169.613281 170.714844 129.636719 178.792969 107.769531 C 183.261719 95.675781 187.574219 93.453125 190.40625 93.71875 C 195.40625 94.191406 199.691406 102.890625 202.164062 117.589844 C 206.75 144.855469 203.910156 184.828125 195.828125 206.699219 C 191.363281 218.792969 187.050781 221.015625 184.21875 220.75 C 182.933594 220.628906 181.691406 219.960938 180.519531 218.789062 " fill-opacity="1" fill-rule="nonzero"/></g></g></g></g><g clip-path="url(#9c68797721)"><g clip-path="url(#f6c77335cc)"><g clip-path="url(#11cf307eaf)"><g clip-path="url(#f5a4480c56)"><path fill="#f49617" d="M 195.058594 94.441406 C 193.964844 93.347656 192.808594 92.714844 191.605469 92.570312 C 187.785156 92.105469 183.675781 96.804688 180.039062 105.792969 C 171.242188 127.539062 167.4375 168.316406 171.558594 196.695312 C 173.796875 212.105469 177.96875 221.292969 183.019531 221.898438 C 186.839844 222.359375 190.949219 217.664062 194.585938 208.675781 C 203.382812 186.929688 207.1875 146.152344 203.070312 117.773438 C 201.363281 106.046875 198.539062 97.921875 195.058594 94.441406 Z M 179.292969 220.363281 C 175.714844 216.78125 172.824219 208.570312 171.113281 196.757812 C 166.980469 168.316406 170.796875 127.433594 179.621094 105.625 C 184.390625 93.839844 188.800781 91.777344 191.660156 92.121094 C 196.925781 92.757812 201.242188 102.082031 203.511719 117.710938 C 207.644531 146.15625 203.824219 187.039062 195.003906 208.84375 C 190.234375 220.628906 185.824219 222.691406 182.964844 222.347656 C 181.679688 222.191406 180.449219 221.519531 179.292969 220.363281 " fill-opacity="1" fill-rule="nonzero"/></g></g></g></g><g clip-path="url(#cb621d9bca)"><g clip-path="url(#819d03891f)"><g clip-path="url(#049232fe8e)"><g clip-path="url(#4bc16e390c)"><path fill="#f49617" d="M 196.355469 92.929688 C 195.273438 91.847656 194.121094 91.199219 192.914062 91.023438 C 189.054688 90.449219 184.796875 94.941406 180.9375 103.671875 C 171.375 125.289062 166.542969 166.917969 170.167969 196.464844 C 172.175781 212.824219 176.382812 222.660156 181.710938 223.445312 C 185.570312 224.019531 189.824219 219.527344 193.6875 210.796875 C 203.25 189.179688 208.078125 147.554688 204.457031 118.003906 C 202.90625 105.359375 200.039062 96.609375 196.355469 92.929688 Z M 177.996094 221.878906 C 174.210938 218.089844 171.285156 209.253906 169.722656 196.519531 C 166.089844 166.902344 170.9375 125.167969 180.523438 103.488281 C 184.535156 94.429688 188.839844 89.964844 192.980469 90.578125 C 198.523438 91.398438 202.867188 101.375 204.902344 117.945312 C 208.535156 147.566406 203.6875 189.300781 194.097656 210.980469 C 190.089844 220.039062 185.785156 224.507812 181.644531 223.894531 C 180.359375 223.699219 179.136719 223.019531 177.996094 221.878906 " fill-opacity="1" fill-rule="nonzero"/></g></g></g></g><g clip-path="url(#6a0908fc13)"><g clip-path="url(#76ef72ca54)"><g clip-path="url(#3f4c6a53b2)"><g clip-path="url(#4f5ff557c5)"><path fill="#f49617" d="M 197.636719 91.4375 C 196.585938 90.386719 195.464844 89.742188 194.292969 89.535156 C 190.390625 88.84375 185.992188 93.117188 181.910156 101.566406 C 171.5625 122.984375 165.652344 165.398438 168.742188 196.113281 C 170.457031 213.179688 174.792969 223.957031 180.332031 224.933594 C 184.234375 225.625 188.632812 221.351562 192.714844 212.902344 C 203.0625 191.484375 208.96875 149.070312 205.882812 118.355469 C 204.53125 104.898438 201.550781 95.355469 197.636719 91.4375 Z M 176.628906 223.328125 C 172.625 219.324219 169.667969 209.839844 168.292969 196.15625 C 165.199219 165.371094 171.125 122.851562 181.503906 101.371094 C 185.742188 92.597656 190.191406 88.355469 194.375 89.09375 C 200.207031 90.121094 204.566406 100.773438 206.332031 118.3125 C 209.425781 149.097656 203.5 191.617188 193.121094 213.097656 C 188.882812 221.871094 184.433594 226.117188 180.253906 225.375 C 178.96875 225.148438 177.753906 224.457031 176.628906 223.328125 " fill-opacity="1" fill-rule="nonzero"/></g></g></g></g><g clip-path="url(#f6d78a11cd)"><g clip-path="url(#0af4be8e0c)"><g clip-path="url(#4cfd597e73)"><g clip-path="url(#84a74f697c)"><path fill="#f49617" d="M 199.074219 90.054688 C 198.03125 89.011719 196.921875 88.355469 195.746094 88.117188 C 191.742188 87.289062 187.320312 91.222656 182.960938 99.484375 C 171.804688 120.632812 164.769531 163.757812 167.277344 195.625 C 168.695312 213.664062 173.035156 225.148438 178.878906 226.355469 C 182.882812 227.179688 187.304688 223.25 191.664062 214.984375 C 202.820312 193.835938 209.851562 150.710938 207.347656 118.84375 C 206.214844 104.429688 203.214844 94.195312 199.074219 90.054688 Z M 175.183594 224.710938 C 170.953125 220.476562 167.980469 210.3125 166.828125 195.660156 C 164.316406 163.722656 171.375 120.484375 182.5625 99.273438 C 187.023438 90.816406 191.617188 86.804688 195.835938 87.671875 C 201.980469 88.941406 206.339844 100.289062 207.796875 118.808594 C 210.308594 150.746094 203.25 193.984375 192.0625 215.195312 C 187.597656 223.65625 183.007812 227.664062 178.789062 226.792969 C 177.503906 226.53125 176.300781 225.828125 175.183594 224.710938 " fill-opacity="1" fill-rule="nonzero"/></g></g></g></g><g clip-path="url(#1996359632)"><g clip-path="url(#3d8ade3c75)"><g clip-path="url(#27a91b577a)"><g clip-path="url(#be8e55a575)"><path fill="#f49617" d="M 200.582031 88.746094 C 199.550781 87.714844 198.445312 87.046875 197.269531 86.769531 C 193.21875 85.808594 188.664062 89.496094 184.089844 97.433594 C 172.109375 118.230469 163.894531 161.996094 165.773438 194.996094 C 166.859375 214.015625 171.1875 226.238281 177.355469 227.699219 C 181.40625 228.660156 185.960938 224.972656 190.53125 217.035156 C 202.515625 196.238281 210.730469 152.472656 208.847656 119.472656 C 207.972656 104.074219 204.96875 93.132812 200.582031 88.746094 Z M 173.667969 226.011719 C 169.191406 221.535156 166.21875 210.675781 165.328125 195.023438 C 163.441406 161.949219 171.679688 118.070312 183.699219 97.210938 C 188.382812 89.082031 193.109375 85.320312 197.375 86.332031 C 203.839844 87.867188 208.1875 99.933594 209.300781 119.445312 C 211.183594 152.519531 202.941406 196.398438 190.925781 217.261719 C 186.242188 225.386719 181.515625 229.148438 177.25 228.136719 C 175.972656 227.835938 174.773438 227.117188 173.667969 226.011719 " fill-opacity="1" fill-rule="nonzero"/></g></g></g></g><g clip-path="url(#7b52c67652)"><g clip-path="url(#b4026046d4)"><g clip-path="url(#388df27144)"><g clip-path="url(#953fa60ea9)"><path fill="#f49617" d="M 202.160156 87.523438 C 201.140625 86.503906 200.039062 85.820312 198.871094 85.503906 C 194.769531 84.402344 190.082031 87.828125 185.300781 95.417969 C 172.476562 115.789062 163.027344 160.109375 164.238281 194.222656 C 164.949219 214.226562 169.257812 227.214844 175.757812 228.960938 C 179.851562 230.066406 184.542969 226.640625 189.324219 219.050781 C 202.148438 198.683594 211.597656 154.359375 210.386719 120.246094 C 209.800781 103.851562 206.804688 92.167969 202.160156 87.523438 Z M 172.191406 227.289062 C 167.4375 222.535156 164.378906 210.742188 163.789062 194.238281 C 162.574219 160.050781 172.054688 115.613281 184.921875 95.179688 C 189.816406 87.40625 194.679688 83.910156 198.984375 85.074219 C 205.6875 86.875 210.117188 100.019531 210.835938 120.230469 C 212.046875 154.417969 202.570312 198.859375 189.703125 219.289062 C 184.808594 227.0625 179.945312 230.558594 175.640625 229.398438 C 174.410156 229.066406 173.257812 228.355469 172.191406 227.289062 " fill-opacity="1" fill-rule="nonzero"/></g></g></g></g><g clip-path="url(#fca9cb7dcd)"><g clip-path="url(#09b11dfc3c)"><g clip-path="url(#9d7797e9d6)"><g clip-path="url(#2d6c30de57)"><path fill="#f49617" d="M 203.808594 86.386719 C 202.796875 85.378906 201.707031 84.6875 200.542969 84.332031 C 196.398438 83.078125 191.578125 86.230469 186.597656 93.453125 C 172.90625 113.304688 162.175781 158.09375 162.671875 193.292969 C 162.964844 214.285156 167.230469 228.058594 174.082031 230.136719 C 178.222656 231.394531 183.046875 228.238281 188.027344 221.015625 C 201.71875 201.164062 212.449219 156.375 211.953125 121.175781 C 211.707031 103.757812 208.726562 91.308594 203.808594 86.386719 Z M 170.542969 228.421875 C 165.507812 223.390625 162.46875 210.832031 162.222656 193.296875 C 161.722656 158.019531 172.492188 113.117188 186.226562 93.195312 C 191.328125 85.796875 196.324219 82.582031 200.671875 83.902344 C 207.71875 86.042969 212.105469 99.972656 212.402344 121.171875 C 212.902344 156.449219 202.132812 201.355469 188.398438 221.273438 C 183.296875 228.671875 178.300781 231.886719 173.949219 230.566406 C 172.730469 230.195312 171.59375 229.472656 170.542969 228.421875 " fill-opacity="1" fill-rule="nonzero"/></g></g></g></g><g clip-path="url(#3468ebd780)"><g clip-path="url(#deb9988285)"><g clip-path="url(#f2e62ecf3b)"><g clip-path="url(#d74aeb35dd)"><path fill="#f49617" d="M 205.523438 85.347656 C 204.527344 84.355469 203.449219 83.652344 202.292969 83.257812 C 198.105469 81.835938 193.152344 84.699219 187.976562 91.539062 C 173.410156 110.785156 161.339844 155.945312 161.074219 192.203125 C 160.910156 214.179688 165.117188 228.761719 172.328125 231.207031 C 176.519531 232.632812 181.472656 229.769531 186.648438 222.929688 C 201.214844 203.679688 213.285156 158.523438 213.550781 122.269531 C 213.6875 103.808594 210.742188 90.570312 205.523438 85.347656 Z M 168.824219 229.460938 C 163.496094 224.128906 160.488281 210.773438 160.625 192.199219 C 160.890625 155.859375 173 110.578125 187.617188 91.269531 C 192.921875 84.257812 198.046875 81.34375 202.441406 82.832031 C 209.839844 85.347656 214.164062 100.09375 214.003906 122.269531 C 213.730469 158.609375 201.621094 203.886719 187.007812 223.199219 C 181.699219 230.210938 176.574219 233.125 172.183594 231.636719 C 170.980469 231.226562 169.859375 230.496094 168.824219 229.460938 " fill-opacity="1" fill-rule="nonzero"/></g></g></g></g><g clip-path="url(#0411b30dc2)"><g clip-path="url(#d5e24fcb3d)"><g clip-path="url(#0730f1a361)"><g clip-path="url(#0624eb513f)"><path fill="#f49617" d="M 207.300781 84.414062 C 206.324219 83.4375 205.265625 82.726562 204.128906 82.296875 C 199.890625 80.691406 194.8125 83.25 189.441406 89.691406 C 173.980469 108.242188 160.527344 153.664062 159.449219 190.941406 C 158.785156 213.890625 162.917969 229.304688 170.496094 232.171875 C 174.734375 233.777344 179.8125 231.21875 185.183594 224.777344 C 200.640625 206.226562 214.097656 160.804688 215.175781 123.527344 C 215.742188 104.019531 212.839844 89.953125 207.300781 84.414062 Z M 167.042969 230.394531 C 161.390625 224.742188 158.429688 210.558594 159 190.929688 C 160.078125 153.566406 173.582031 108.019531 189.097656 89.402344 C 194.601562 82.800781 199.855469 80.199219 204.289062 81.875 C 212.0625 84.816406 216.292969 100.390625 215.625 123.539062 C 214.546875 160.90625 201.042969 206.449219 185.527344 225.066406 C 180.023438 231.667969 174.769531 234.273438 170.335938 232.59375 C 169.152344 232.148438 168.054688 231.40625 167.042969 230.394531 " fill-opacity="1" fill-rule="nonzero"/></g></g></g></g><g clip-path="url(#95142cc578)"><g clip-path="url(#6c6f3a3174)"><g clip-path="url(#1dfcee5e1b)"><g clip-path="url(#b0a165f729)"><path fill="#f49617" d="M 209.140625 83.589844 C 208.1875 82.636719 207.15625 81.917969 206.046875 81.453125 C 201.757812 79.652344 196.554688 81.886719 190.996094 87.917969 C 174.628906 105.671875 159.738281 151.246094 157.796875 189.507812 C 156.589844 213.410156 160.617188 229.671875 168.578125 233.015625 C 172.867188 234.816406 178.070312 232.582031 183.628906 226.554688 C 199.996094 208.796875 214.886719 163.222656 216.824219 124.960938 C 217.867188 104.390625 215.027344 89.476562 209.140625 83.589844 Z M 165.199219 231.21875 C 159.199219 225.222656 156.300781 210.183594 157.347656 189.484375 C 159.292969 151.132812 174.238281 105.433594 190.667969 87.613281 C 196.363281 81.429688 201.742188 79.15625 206.21875 81.039062 C 214.367188 84.457031 218.496094 100.886719 217.273438 124.984375 C 215.332031 163.335938 200.386719 209.035156 183.957031 226.859375 C 178.261719 233.039062 172.882812 235.3125 168.402344 233.429688 C 167.253906 232.949219 166.183594 232.207031 165.199219 231.21875 " fill-opacity="1" fill-rule="nonzero"/></g></g></g></g><g clip-path="url(#3b1c95b93a)"><g clip-path="url(#b0c7300570)"><g clip-path="url(#632abf010b)"><g clip-path="url(#efa2dadcf2)"><path fill="#f49617" d="M 211.039062 82.875 C 210.117188 81.953125 209.121094 81.238281 208.054688 80.742188 C 203.714844 78.726562 198.382812 80.621094 192.640625 86.226562 C 175.355469 103.085938 158.976562 148.691406 156.128906 187.886719 C 154.324219 212.710938 158.226562 229.851562 166.570312 233.726562 C 170.910156 235.742188 176.242188 233.847656 181.984375 228.246094 C 199.269531 211.382812 215.648438 165.777344 218.5 126.578125 C 220.070312 104.9375 217.304688 89.136719 211.039062 82.875 Z M 163.300781 231.933594 C 156.921875 225.558594 154.097656 209.632812 155.679688 187.855469 C 158.535156 148.566406 174.972656 102.828125 192.324219 85.902344 C 198.214844 80.15625 203.71875 78.230469 208.242188 80.332031 C 216.765625 84.292969 220.761719 101.59375 218.945312 126.613281 C 216.09375 165.902344 199.652344 211.640625 182.296875 228.566406 C 176.410156 234.3125 170.90625 236.238281 166.382812 234.132812 C 165.277344 233.621094 164.246094 232.882812 163.300781 231.933594 " fill-opacity="1" fill-rule="nonzero"/></g></g></g></g><g clip-path="url(#b74e3b4750)"><g clip-path="url(#ebdd7b2345)"><g clip-path="url(#bd7b98ca68)"><g clip-path="url(#275fe1c008)"><path fill="#f49617" d="M 212.882812 82.203125 C 212.035156 81.355469 211.121094 80.675781 210.148438 80.175781 C 205.757812 77.921875 200.304688 79.460938 194.371094 84.625 C 176.15625 100.484375 158.242188 146 154.4375 186.078125 C 152.035156 211.402344 155.878906 229.875 164.472656 234.292969 C 168.863281 236.546875 174.320312 235.007812 180.253906 229.84375 C 198.464844 213.984375 216.378906 168.472656 220.183594 128.386719 C 222.320312 105.929688 219.535156 88.855469 212.882812 82.203125 Z M 161.34375 232.527344 C 154.554688 225.742188 151.820312 208.890625 153.988281 186.035156 C 157.804688 145.859375 175.789062 100.210938 194.078125 84.285156 C 200.160156 78.988281 205.789062 77.429688 210.355469 79.777344 C 219.257812 84.34375 223.09375 102.53125 220.632812 128.429688 C 216.816406 168.613281 198.835938 214.257812 180.546875 230.183594 C 174.464844 235.480469 168.835938 237.039062 164.269531 234.695312 C 163.222656 234.15625 162.246094 233.429688 161.34375 232.527344 " fill-opacity="1" fill-rule="nonzero"/></g></g></g></g><g clip-path="url(#5165cbc5a2)"><g clip-path="url(#506d151024)"><g clip-path="url(#db4ae6d07a)"><g clip-path="url(#f201231974)"><path fill="#f49617" d="M 214.886719 81.730469 C 214.09375 80.9375 213.246094 80.28125 212.34375 79.769531 C 207.902344 77.25 202.316406 78.410156 196.195312 83.128906 C 177.046875 97.878906 157.550781 143.164062 152.734375 184.074219 C 149.65625 210.21875 153.3125 229.613281 162.28125 234.699219 C 166.726562 237.21875 172.308594 236.058594 178.429688 231.339844 C 197.578125 216.585938 217.074219 171.304688 221.890625 130.394531 C 224.65625 106.878906 221.976562 88.820312 214.886719 81.730469 Z M 159.445312 233.078125 C 152.242188 225.871094 149.503906 207.675781 152.289062 184.019531 C 157.117188 143.007812 176.691406 97.589844 195.917969 82.773438 C 202.195312 77.9375 207.953125 76.765625 212.566406 79.378906 C 221.695312 84.554688 225.4375 104.121094 222.335938 130.449219 C 217.507812 171.460938 197.933594 216.882812 178.707031 231.699219 C 172.429688 236.53125 166.671875 237.703125 162.058594 235.089844 C 161.132812 234.5625 160.261719 233.890625 159.445312 233.078125 " fill-opacity="1" fill-rule="nonzero"/></g></g></g></g><g clip-path="url(#0ab73ab7f4)"><g clip-path="url(#c36f9839c1)"><g clip-path="url(#1e112f4ef9)"><g clip-path="url(#109fdd4d12)"><path fill="#f49617" d="M 216.9375 81.382812 C 216.21875 80.664062 215.453125 80.050781 214.644531 79.546875 C 210.144531 76.730469 204.425781 77.488281 198.109375 81.746094 C 178.019531 95.277344 156.898438 140.1875 151.023438 181.863281 C 147.226562 208.761719 150.664062 229.097656 159.980469 234.921875 C 164.480469 237.738281 170.199219 236.976562 176.515625 232.722656 C 196.601562 219.191406 217.726562 174.28125 223.601562 132.605469 C 227.066406 108.039062 224.503906 88.953125 216.9375 81.382812 Z M 157.390625 233.421875 C 149.710938 225.738281 147.09375 206.507812 150.574219 181.800781 C 156.46875 140.019531 177.675781 94.964844 197.859375 81.371094 C 204.332031 77.011719 210.21875 76.246094 214.882812 79.164062 C 224.351562 85.085938 227.867188 105.589844 224.046875 132.667969 C 218.15625 174.449219 196.945312 219.503906 176.765625 233.097656 C 170.292969 237.460938 164.40625 238.222656 159.742188 235.304688 C 158.914062 234.785156 158.128906 234.15625 157.390625 233.421875 " fill-opacity="1" fill-rule="nonzero"/></g></g></g></g><g clip-path="url(#340cfb84ae)"><g clip-path="url(#83e0da6a9d)"><g clip-path="url(#b082dadb79)"><g clip-path="url(#8aaf9d5e2d)"><path fill="#f49617" d="M 219.027344 81.171875 C 218.402344 80.546875 217.746094 79.996094 217.054688 79.519531 C 212.496094 76.371094 206.636719 76.707031 200.113281 80.488281 C 179.082031 92.683594 156.289062 137.074219 149.300781 179.441406 C 144.753906 207.019531 147.921875 228.300781 157.570312 234.953125 C 162.128906 238.097656 167.988281 237.761719 174.507812 233.980469 C 195.542969 221.785156 218.335938 177.394531 225.324219 135.027344 C 229.546875 109.425781 227.117188 89.261719 219.027344 81.171875 Z M 155.296875 233.628906 C 147.09375 225.425781 144.613281 205.117188 148.859375 179.371094 C 155.863281 136.886719 178.757812 92.351562 199.886719 80.097656 C 206.570312 76.222656 212.597656 75.894531 217.308594 79.148438 C 227.105469 85.910156 230.34375 107.351562 225.765625 135.097656 C 218.761719 177.585938 195.867188 222.117188 174.734375 234.371094 C 168.050781 238.246094 162.027344 238.574219 157.316406 235.320312 C 156.609375 234.832031 155.933594 234.265625 155.296875 233.628906 " fill-opacity="1" fill-rule="nonzero"/></g></g></g></g><g clip-path="url(#ae6bbdc6ac)"><g clip-path="url(#44b287836a)"><g clip-path="url(#bcc2b254d5)"><g clip-path="url(#628b5ced82)"><path fill="#f49617" d="M 221.152344 81.09375 C 220.648438 80.589844 220.128906 80.132812 219.582031 79.714844 C 214.960938 76.191406 208.957031 76.070312 202.210938 79.367188 C 180.238281 90.105469 155.730469 133.816406 147.578125 176.804688 C 142.242188 204.964844 145.097656 227.175781 155.042969 234.753906 C 159.664062 238.277344 165.667969 238.398438 172.414062 235.105469 C 194.386719 224.363281 218.894531 180.652344 227.042969 137.664062 C 232.089844 111.046875 229.8125 89.753906 221.152344 81.09375 Z M 153.167969 233.703125 C 144.394531 224.933594 142.0625 203.484375 147.140625 176.722656 C 155.3125 133.609375 179.929688 89.757812 202.015625 78.960938 C 208.921875 75.585938 215.089844 75.722656 219.855469 79.359375 C 229.933594 87.050781 232.855469 109.421875 227.484375 137.75 C 219.3125 180.859375 194.695312 224.710938 172.609375 235.507812 C 165.703125 238.882812 159.535156 238.746094 154.769531 235.109375 C 154.214844 234.6875 153.675781 234.214844 153.167969 233.703125 " fill-opacity="1" fill-rule="nonzero"/></g></g></g></g><g clip-path="url(#5dfeb5d9bb)"><g clip-path="url(#2afc53c836)"><g clip-path="url(#c5f83de22f)"><g clip-path="url(#24e5dee521)"><path fill="#f49617" d="M 223.304688 81.148438 C 222.960938 80.804688 222.601562 80.476562 222.238281 80.167969 C 217.554688 76.210938 211.386719 75.601562 204.402344 78.390625 C 181.484375 87.554688 155.226562 130.417969 145.863281 173.941406 C 139.703125 202.574219 142.1875 225.691406 152.386719 234.300781 C 157.074219 238.253906 163.238281 238.871094 170.222656 236.078125 C 193.140625 226.914062 219.402344 184.050781 228.761719 140.527344 C 234.699219 112.921875 232.589844 90.433594 223.304688 81.148438 Z M 151.007812 233.644531 C 141.609375 224.246094 139.453125 201.605469 145.421875 173.847656 C 154.8125 130.195312 181.195312 87.183594 204.234375 77.972656 C 211.382812 75.117188 217.710938 75.757812 222.527344 79.824219 C 232.84375 88.53125 235.394531 111.824219 229.203125 140.621094 C 219.8125 184.277344 193.429688 227.285156 170.390625 236.492188 C 163.242188 239.351562 156.914062 238.714844 152.097656 234.644531 C 151.726562 234.332031 151.359375 233.996094 151.007812 233.644531 " fill-opacity="1" fill-rule="nonzero"/></g></g></g></g><g clip-path="url(#a736e91ba3)"><g clip-path="url(#33b8469de8)"><g clip-path="url(#21ed36d2ac)"><g clip-path="url(#0b0af1094d)"><path fill="#f49617" d="M 225.476562 81.34375 C 225.328125 81.191406 225.175781 81.050781 225.027344 80.90625 C 220.277344 76.460938 213.933594 75.3125 206.679688 77.578125 C 182.828125 85.035156 154.777344 126.875 144.152344 170.847656 C 137.25 199.402344 139.175781 223.152344 149.148438 233.128906 C 149.296875 233.277344 149.445312 233.421875 149.601562 233.5625 C 154.347656 238.007812 160.6875 239.15625 167.945312 236.890625 C 191.796875 229.433594 219.847656 187.59375 230.472656 143.621094 C 237.371094 115.066406 235.449219 91.3125 225.476562 81.34375 Z M 148.832031 233.449219 C 138.746094 223.363281 136.777344 199.453125 143.714844 170.742188 C 154.375 126.632812 182.558594 84.648438 206.546875 77.148438 C 213.964844 74.832031 220.460938 76.015625 225.332031 80.578125 C 225.488281 80.722656 225.640625 80.871094 225.792969 81.019531 C 235.875 91.105469 237.847656 115.015625 230.910156 143.726562 C 220.25 187.835938 192.066406 229.820312 168.078125 237.320312 C 160.660156 239.636719 154.164062 238.453125 149.292969 233.894531 C 149.136719 233.746094 148.984375 233.597656 148.832031 233.449219 " fill-opacity="1" fill-rule="nonzero"/></g></g></g></g><g clip-path="url(#cfde29f6a3)"><g clip-path="url(#cc9eb84aaa)"><g clip-path="url(#b4d2a4d0d9)"><g clip-path="url(#919d09ac9a)"><path fill="#f49617" d="M 227.667969 81.679688 C 222.886719 76.898438 216.457031 75.257812 209.050781 76.9375 C 184.269531 82.5625 154.394531 123.195312 142.457031 167.519531 C 134.589844 196.710938 136.207031 221.605469 146.671875 232.5 C 146.765625 232.597656 146.859375 232.695312 146.957031 232.792969 C 151.738281 237.574219 158.164062 239.210938 165.574219 237.53125 C 190.355469 231.90625 220.230469 191.273438 232.167969 146.949219 C 240.03125 117.761719 238.417969 92.859375 227.953125 81.96875 C 227.859375 81.871094 227.761719 81.773438 227.667969 81.679688 Z M 146.640625 233.109375 C 146.542969 233.011719 146.441406 232.914062 146.347656 232.808594 C 135.773438 221.804688 134.117188 196.742188 142.019531 167.402344 C 154 122.933594 184.027344 82.15625 208.953125 76.5 C 216.667969 74.746094 223.332031 76.523438 228.277344 81.660156 C 238.851562 92.660156 240.507812 117.726562 232.605469 147.066406 C 220.625 191.535156 190.597656 232.3125 165.671875 237.96875 C 158.105469 239.683594 151.535156 238.003906 146.640625 233.109375 " fill-opacity="1" fill-rule="nonzero"/></g></g></g></g><g clip-path="url(#6f2752b222)"><g clip-path="url(#0a5c3ef0dd)"><g clip-path="url(#feccf868e0)"><g clip-path="url(#7789bdcc2e)"><path fill="#f49617" d="M 229.875 82.164062 C 225.117188 77.40625 218.804688 75.445312 211.511719 76.484375 C 185.8125 80.140625 154.082031 119.375 140.777344 163.949219 C 132.046875 193.191406 133.128906 218.910156 143.597656 231.0625 C 148.460938 236.71875 155.214844 239.109375 163.109375 237.984375 C 188.8125 234.332031 220.542969 195.09375 233.847656 150.519531 C 242.574219 121.277344 241.496094 95.558594 231.027344 83.40625 C 230.65625 82.972656 230.269531 82.558594 229.875 82.164062 Z M 144.433594 232.625 C 144.03125 232.222656 143.636719 231.800781 143.253906 231.355469 C 132.691406 219.085938 131.574219 193.207031 140.34375 163.820312 C 153.695312 119.09375 185.59375 79.714844 211.449219 76.035156 C 219.507812 74.890625 226.398438 77.34375 231.371094 83.113281 C 241.9375 95.382812 243.050781 121.257812 234.277344 150.648438 C 220.925781 195.375 189.03125 234.753906 163.175781 238.433594 C 155.738281 239.492188 149.292969 237.484375 144.433594 232.625 " fill-opacity="1" fill-rule="nonzero"/></g></g></g></g><g clip-path="url(#d4a7a5da20)"><g clip-path="url(#a520e000db)"><g clip-path="url(#f0cabc7dfb)"><g clip-path="url(#05f982f859)"><path fill="#f49617" d="M 232.074219 82.78125 C 227.359375 78.066406 221.195312 75.808594 214.066406 76.226562 C 187.460938 77.78125 153.84375 115.421875 139.125 160.132812 C 129.535156 189.265625 130.015625 215.730469 140.378906 229.207031 C 145.292969 235.601562 152.273438 238.726562 160.558594 238.242188 C 187.164062 236.691406 220.78125 199.046875 235.5 154.335938 C 245.089844 125.203125 244.609375 98.734375 234.246094 85.261719 C 233.5625 84.371094 232.835938 83.542969 232.074219 82.78125 Z M 142.238281 232.011719 C 141.457031 231.234375 140.71875 230.390625 140.019531 229.480469 C 129.566406 215.890625 129.0625 189.265625 138.695312 159.992188 C 153.46875 115.121094 187.265625 77.339844 214.039062 75.777344 C 222.480469 75.28125 229.589844 78.464844 234.605469 84.988281 C 245.054688 98.578125 245.5625 125.207031 235.925781 154.476562 C 221.15625 199.351562 187.359375 237.128906 160.585938 238.691406 C 153.320312 239.117188 147.042969 236.816406 142.238281 232.011719 " fill-opacity="1" fill-rule="nonzero"/></g></g></g></g><g clip-path="url(#29bb27ea85)"><g clip-path="url(#e95efc512e)"><g clip-path="url(#ffd8653e18)"><g clip-path="url(#01b44cc4c4)"><path fill="#f49617" d="M 234.246094 83.519531 C 229.597656 78.871094 223.621094 76.351562 216.703125 76.179688 C 189.210938 75.496094 153.683594 111.332031 137.503906 156.0625 C 127.066406 184.914062 126.878906 212.046875 137.011719 226.875 C 141.964844 234.125 149.195312 238.070312 157.921875 238.289062 C 185.414062 238.976562 220.941406 203.140625 237.121094 158.40625 C 247.554688 129.554688 247.742188 102.421875 237.613281 87.59375 C 236.585938 86.089844 235.460938 84.734375 234.246094 83.519531 Z M 140.0625 231.277344 C 138.828125 230.039062 137.683594 228.65625 136.640625 227.128906 C 126.429688 212.183594 126.597656 184.894531 137.078125 155.910156 C 153.320312 111.007812 189.046875 75.039062 216.714844 75.730469 C 225.589844 75.949219 232.949219 79.96875 237.980469 87.339844 C 248.195312 102.289062 248.027344 129.574219 237.542969 158.558594 C 221.304688 203.460938 185.578125 239.429688 157.910156 238.738281 C 150.871094 238.5625 144.789062 236.003906 140.0625 231.277344 " fill-opacity="1" fill-rule="nonzero"/></g></g></g></g><g clip-path="url(#d923af195a)"><g clip-path="url(#0a34228bfb)"><g clip-path="url(#ae9e8fba4d)"><g clip-path="url(#3186aa19f6)"><path fill="#f49617" d="M 236.378906 84.363281 C 231.828125 79.8125 226.078125 77.078125 219.429688 76.359375 C 191.070312 73.292969 153.605469 107.105469 135.917969 151.738281 C 124.667969 180.128906 123.746094 207.824219 133.511719 224.015625 C 138.476562 232.238281 145.972656 237.113281 155.195312 238.109375 C 183.554688 241.175781 221.015625 207.359375 238.707031 162.730469 C 249.957031 134.339844 250.878906 106.644531 241.109375 90.453125 C 239.726562 88.160156 238.144531 86.125 236.378906 84.363281 Z M 137.925781 230.429688 C 136.140625 228.640625 134.535156 226.578125 133.128906 224.246094 C 123.289062 207.9375 124.199219 180.089844 135.5 151.574219 C 153.257812 106.769531 190.929688 72.824219 219.480469 75.910156 C 228.84375 76.925781 236.457031 81.875 241.496094 90.222656 C 251.335938 106.53125 250.425781 134.378906 239.125 162.898438 C 221.367188 207.703125 183.691406 241.644531 155.144531 238.558594 C 148.394531 237.828125 142.550781 235.050781 137.925781 230.429688 " fill-opacity="1" fill-rule="nonzero"/></g></g></g></g><g clip-path="url(#8cb853db4e)"><g clip-path="url(#dc752d841b)"><g clip-path="url(#41bc2407fe)"><g clip-path="url(#7a4ccc1119)"><path fill="#f49617" d="M 238.464844 85.308594 C 234.042969 80.886719 228.5625 77.988281 222.242188 76.777344 C 193.039062 71.1875 153.621094 102.757812 134.378906 147.152344 C 122.167969 175.328125 120.492188 202.773438 129.894531 220.566406 C 134.828125 229.898438 142.605469 235.820312 152.382812 237.691406 C 181.585938 243.28125 221 211.710938 240.246094 167.316406 C 252.457031 139.140625 254.132812 111.695312 244.726562 93.902344 C 242.984375 90.601562 240.882812 87.726562 238.464844 85.308594 Z M 135.84375 229.484375 C 133.394531 227.03125 131.265625 224.121094 129.496094 220.777344 C 120.027344 202.863281 121.699219 175.277344 133.96875 146.972656 C 153.289062 102.394531 192.925781 70.707031 222.324219 76.335938 C 232.242188 78.234375 240.128906 84.238281 245.125 93.691406 C 254.59375 111.605469 252.925781 139.195312 240.65625 167.496094 C 221.332031 212.074219 181.695312 243.761719 152.300781 238.132812 C 145.886719 236.90625 140.324219 233.964844 135.84375 229.484375 " fill-opacity="1" fill-rule="nonzero"/></g></g></g></g><g clip-path="url(#a358590324)"><g clip-path="url(#1f983cb95b)"><g clip-path="url(#eef526e486)"><g clip-path="url(#d8bf568934)"><path fill="#f49617" d="M 240.480469 86.339844 C 236.234375 82.09375 231.066406 79.082031 225.132812 77.453125 C 195.117188 69.191406 153.734375 98.285156 132.894531 142.304688 C 119.9375 169.664062 117.429688 197.394531 126.179688 216.480469 C 131.03125 227.054688 139.089844 234.15625 149.488281 237.015625 C 179.511719 245.277344 220.890625 216.1875 241.730469 172.164062 C 254.6875 144.804688 257.195312 117.074219 248.445312 97.988281 C 246.359375 93.445312 243.679688 89.539062 240.480469 86.339844 Z M 133.824219 228.449219 C 130.585938 225.210938 127.878906 221.265625 125.773438 216.667969 C 116.964844 197.460938 119.472656 169.589844 132.484375 142.109375 C 153.417969 97.902344 195.035156 68.703125 225.253906 77.015625 C 235.785156 79.914062 243.945312 87.101562 248.855469 97.800781 C 257.660156 117.007812 255.152344 144.878906 242.140625 172.359375 C 221.207031 216.566406 179.589844 245.765625 149.371094 237.453125 C 143.363281 235.796875 138.125 232.75 133.824219 228.449219 " fill-opacity="1" fill-rule="nonzero"/></g></g></g></g><g clip-path="url(#6b390e47c1)"><g clip-path="url(#229af2b7c8)"><g clip-path="url(#c1e480fa2b)"><g clip-path="url(#6fb5f1283d)"><path fill="#f49617" d="M 242.417969 87.441406 C 238.386719 83.414062 233.582031 80.359375 228.109375 78.394531 C 197.304688 67.316406 153.953125 93.691406 131.464844 137.183594 C 117.824219 163.570312 114.433594 191.425781 122.398438 211.699219 C 127.09375 223.664062 135.433594 232.09375 146.515625 236.078125 C 177.320312 247.152344 220.671875 220.777344 243.160156 177.28125 C 256.800781 150.898438 260.191406 123.042969 252.230469 102.769531 C 249.851562 96.714844 246.539062 91.566406 242.417969 87.441406 Z M 131.890625 227.34375 C 127.722656 223.175781 124.375 217.976562 121.976562 211.863281 C 113.96875 191.472656 117.363281 163.476562 131.066406 136.980469 C 153.652344 93.292969 197.253906 66.820312 228.257812 77.96875 C 239.46875 82 247.898438 90.519531 252.648438 102.601562 C 260.65625 122.996094 257.257812 150.992188 243.558594 177.488281 C 220.972656 221.175781 177.371094 247.648438 146.363281 236.5 C 140.824219 234.507812 135.964844 231.417969 131.890625 227.34375 " fill-opacity="1" fill-rule="nonzero"/></g></g></g></g><g clip-path="url(#e80540918d)"><g clip-path="url(#9581f34eea)"><g clip-path="url(#368ce552c1)"><g clip-path="url(#4755889250)"><path fill="#f49617" d="M 244.25 88.59375 C 240.496094 84.839844 236.109375 81.820312 231.15625 79.617188 C 199.605469 65.574219 154.273438 88.984375 130.105469 131.800781 C 115.84375 157.054688 111.539062 184.867188 118.582031 206.195312 C 123.035156 219.679688 131.640625 229.589844 143.46875 234.855469 C 175.019531 248.894531 220.351562 225.484375 244.519531 182.671875 C 258.78125 157.410156 263.085938 129.601562 256.042969 108.273438 C 253.453125 100.4375 249.460938 93.804688 244.25 88.59375 Z M 130.054688 226.195312 C 124.792969 220.933594 120.765625 214.242188 118.152344 206.335938 C 111.070312 184.890625 115.390625 156.945312 129.710938 131.578125 C 153.992188 88.566406 199.585938 65.070312 231.339844 79.207031 C 243.285156 84.523438 251.976562 94.523438 256.472656 108.132812 C 263.554688 129.578125 259.234375 157.523438 244.914062 182.890625 C 220.632812 225.902344 175.042969 249.394531 143.285156 235.265625 C 138.28125 233.035156 133.847656 229.988281 130.054688 226.195312 " fill-opacity="1" fill-rule="nonzero"/></g></g></g></g><g clip-path="url(#aa3e514713)"><g clip-path="url(#bb5afd024e)"><g clip-path="url(#0bd747513f)"><g clip-path="url(#fc651e5567)"><path fill="#f49617" d="M 245.957031 89.765625 C 242.539062 86.347656 238.632812 83.457031 234.277344 81.136719 C 202.019531 63.980469 154.710938 84.171875 128.816406 126.140625 C 114.011719 150.140625 108.761719 177.722656 114.773438 199.925781 C 118.875 215.0625 127.71875 226.613281 140.347656 233.332031 C 172.601562 250.488281 219.910156 230.300781 245.804688 188.328125 C 260.613281 164.328125 265.863281 136.742188 259.847656 114.542969 C 257.164062 104.625 252.441406 96.25 245.957031 89.765625 Z M 128.347656 225.023438 C 121.804688 218.480469 117.046875 210.039062 114.339844 200.042969 C 108.292969 177.726562 113.5625 150.007812 128.433594 125.902344 C 154.453125 83.734375 202.027344 63.476562 234.488281 80.742188 C 247.234375 87.515625 256.148438 99.164062 260.285156 114.425781 C 266.332031 136.742188 261.0625 164.460938 246.191406 188.566406 C 220.171875 230.734375 172.597656 250.992188 140.132812 233.726562 C 135.738281 231.390625 131.796875 228.46875 128.347656 225.023438 " fill-opacity="1" fill-rule="nonzero"/></g></g></g></g><g clip-path="url(#7a912fd573)"><g clip-path="url(#6c71352ab3)"><g clip-path="url(#7698ab6c00)"><g clip-path="url(#d32d4fa652)"><path fill="#f49617" d="M 247.5 90.914062 C 244.5 87.914062 241.148438 85.257812 237.46875 82.972656 C 204.550781 62.550781 155.273438 79.253906 127.617188 120.207031 C 112.105469 143.179688 106.058594 169.667969 111.023438 192.886719 C 114.636719 209.78125 123.675781 223.132812 137.15625 231.496094 C 170.074219 251.917969 219.351562 235.214844 247.007812 194.261719 C 262.519531 171.292969 268.566406 144.800781 263.601562 121.582031 C 260.972656 109.304688 255.480469 98.894531 247.5 90.914062 Z M 126.804688 223.871094 C 118.761719 215.832031 113.230469 205.347656 110.582031 192.980469 C 105.589844 169.644531 111.664062 143.027344 127.242188 119.957031 C 155.03125 78.804688 204.585938 62.042969 237.707031 82.589844 C 251.292969 91.019531 260.402344 104.472656 264.042969 121.488281 C 269.03125 144.824219 262.960938 171.441406 247.378906 194.511719 C 219.59375 235.664062 170.039062 252.429688 136.917969 231.878906 C 133.207031 229.574219 129.828125 226.894531 126.804688 223.871094 " fill-opacity="1" fill-rule="nonzero"/></g></g></g></g><g clip-path="url(#affee8ce24)"><g clip-path="url(#45b2c3862f)"><g clip-path="url(#9f4fb3a10e)"><g clip-path="url(#35c5a9988f)"><path fill="#f49617" d="M 248.613281 91.808594 C 246.179688 89.375 243.542969 87.144531 240.722656 85.136719 C 207.191406 61.292969 155.957031 74.242188 126.507812 114 C 110.589844 135.492188 103.617188 161.394531 107.378906 185.070312 C 110.308594 203.535156 119.726562 219.253906 133.902344 229.332031 C 167.429688 253.175781 218.667969 240.226562 248.117188 200.46875 C 264.035156 178.976562 271.007812 153.070312 267.246094 129.398438 C 264.898438 114.613281 258.390625 101.585938 248.613281 91.808594 Z M 125.695312 222.976562 C 115.847656 213.132812 109.296875 200.023438 106.929688 185.140625 C 103.152344 161.347656 110.15625 135.320312 126.144531 113.734375 C 155.738281 73.78125 207.253906 60.785156 240.980469 84.769531 C 255.253906 94.917969 264.742188 110.742188 267.691406 129.324219 C 271.46875 153.121094 264.46875 179.148438 248.480469 200.734375 C 218.882812 240.6875 167.371094 253.683594 133.640625 229.699219 C 130.796875 227.675781 128.144531 225.429688 125.695312 222.976562 " fill-opacity="1" fill-rule="nonzero"/></g></g></g></g><g clip-path="url(#1179c85462)"><g clip-path="url(#bfb6665eec)"><g clip-path="url(#9346071cec)"><g clip-path="url(#fb660678a0)"><g clip-path="url(#ee1607051c)"><g clip-path="url(#b6a2f54b2c)"><path fill="#f49617" d="M 249.6875 92.714844 C 247.898438 90.929688 246.015625 89.234375 244.03125 87.640625 C 209.949219 60.230469 156.773438 69.148438 125.5 107.523438 C 109.246094 127.464844 101.367188 152.605469 103.882812 176.5 C 106.019531 196.820312 115.5 214.691406 130.59375 226.828125 C 164.675781 254.238281 217.851562 245.320312 249.125 206.945312 C 265.375 187.007812 273.257812 161.867188 270.742188 137.96875 C 268.886719 120.316406 261.484375 104.515625 249.6875 92.714844 Z M 124.621094 222.074219 C 112.746094 210.199219 105.300781 194.300781 103.433594 176.546875 C 100.910156 152.53125 108.824219 127.269531 125.152344 107.238281 C 156.582031 68.671875 210.039062 59.722656 244.316406 87.292969 C 259.496094 99.5 269.042969 117.480469 271.191406 137.921875 C 273.714844 161.933594 265.800781 187.199219 249.472656 207.230469 C 218.042969 245.796875 164.585938 254.746094 130.308594 227.179688 C 128.316406 225.574219 126.417969 223.871094 124.621094 222.074219 " fill-opacity="1" fill-rule="nonzero"/></g></g></g></g></g></g><g clip-path="url(#c1b291a263)"><g clip-path="url(#90dfa8e78d)"><g clip-path="url(#49a0ea63e7)"><g clip-path="url(#70317a844c)"><g clip-path="url(#030ed179d2)"><g clip-path="url(#ee35387b39)"><path fill="#f49617" d="M 250.480469 93.429688 C 249.480469 92.429688 248.453125 91.457031 247.394531 90.503906 C 230.648438 75.425781 208.652344 68.183594 185.460938 70.121094 C 162.265625 72.058594 140.652344 82.945312 124.601562 100.769531 C 108.550781 118.597656 99.984375 141.230469 100.480469 164.5 C 100.980469 187.765625 110.484375 208.882812 127.226562 223.964844 C 161.804688 255.097656 216.890625 250.492188 250.023438 213.699219 C 266.074219 195.871094 274.636719 173.238281 274.140625 149.96875 C 273.675781 128.171875 265.308594 108.257812 250.480469 93.429688 Z M 123.828125 221.355469 C 108.914062 206.445312 100.503906 186.425781 100.035156 164.507812 C 99.53125 141.125 108.140625 118.378906 124.265625 100.46875 C 140.394531 82.558594 162.117188 71.621094 185.425781 69.675781 C 208.742188 67.726562 230.855469 75.003906 247.699219 90.171875 C 264.539062 105.332031 274.089844 126.570312 274.589844 149.957031 C 275.089844 173.34375 266.484375 196.085938 250.355469 214 C 217.0625 250.980469 161.6875 255.601562 126.925781 224.300781 C 125.867188 223.34375 124.828125 222.359375 123.828125 221.355469 " fill-opacity="1" fill-rule="nonzero"/></g></g></g></g></g></g><g clip-path="url(#967fd8c2b6)"><g clip-path="url(#d919bcc1bb)"><g clip-path="url(#d441cf0fd1)"><g clip-path="url(#435b8e3c91)"><path fill="#f49617" d="M 250.808594 93.738281 C 215.800781 58.730469 158.835938 58.734375 123.824219 93.746094 C 88.8125 128.757812 88.808594 185.722656 123.816406 220.730469 C 158.824219 255.738281 215.789062 255.734375 250.800781 220.722656 C 285.8125 185.710938 285.816406 128.746094 250.808594 93.738281 Z M 123.5 221.046875 C 88.316406 185.863281 88.320312 128.613281 123.507812 93.429688 C 158.691406 58.242188 215.941406 58.238281 251.125 93.421875 C 286.308594 128.605469 286.304688 185.855469 251.117188 221.042969 C 215.933594 256.226562 158.683594 256.230469 123.5 221.046875 " fill-opacity="1" fill-rule="nonzero"/></g></g></g></g><g fill="#f49617" fill-opacity="1"><g transform="translate(134.091792, 299.551651)"><g><path d="M 5.148438 -3.484375 C 5.148438 -1.09375 4.054688 -0.675781 1.558594 -0.675781 L 1.558594 0 L 14.507812 0 L 14.507812 -0.675781 C 12.011719 -0.675781 10.867188 -1.09375 10.867188 -3.484375 L 10.867188 -16.742188 L 13.050781 -19.1875 L 22.152344 -5.980469 C 24.179688 -3.121094 26 0 30.367188 0 L 35.980469 0 L 35.980469 -0.675781 C 34.007812 -0.675781 32.34375 -1.246094 30.78125 -3.484375 L 21.421875 -17.105469 C 20.695312 -16.484375 19.8125 -16.171875 18.824219 -16.171875 C 17.003906 -16.171875 14.921875 -17.316406 13.570312 -19.707031 L 26.832031 -34.578125 C 28.859375 -36.917969 30.210938 -37.230469 33.226562 -37.230469 L 33.226562 -37.90625 L 23.242188 -37.90625 L 23.242188 -37.230469 C 26.050781 -37.230469 28.441406 -37.023438 26 -34.527344 L 10.867188 -17.679688 L 10.867188 -34.421875 C 10.867188 -36.8125 12.011719 -37.230469 14.507812 -37.230469 L 14.507812 -37.90625 L 1.558594 -37.90625 L 1.558594 -37.230469 C 4.054688 -37.230469 5.148438 -36.8125 5.148438 -34.421875 Z M 5.148438 -3.484375 "/></g></g></g><g fill="#f49617" fill-opacity="1"><g transform="translate(170.852994, 299.551651)"><g><path d="M 2.601562 -9.410156 C 2.601562 -2.390625 7.488281 0.625 15.441406 0.625 C 19.394531 0.625 22.929688 -0.105469 25.84375 -1.613281 C 27.820312 -0.570312 29.847656 0 31.769531 0 C 35.828125 0 38.789062 -1.351562 39.832031 -5.042969 L 39.257812 -5.042969 C 38.6875 -2.652344 36.917969 -1.871094 34.839844 -1.871094 C 33.226562 -1.871094 31.25 -2.652344 29.222656 -4.003906 C 32.601562 -7.070312 34.578125 -11.90625 34.578125 -18.613281 C 34.578125 -20.175781 34.941406 -20.332031 38.894531 -20.332031 L 38.894531 -20.953125 L 30.003906 -20.953125 L 30.003906 -20.332031 C 33.539062 -20.332031 33.902344 -20.175781 33.902344 -18.613281 C 33.902344 -13.726562 32.5 -8.007812 28.652344 -4.367188 C 23.710938 -7.957031 18.511719 -14.871094 16.640625 -22.253906 C 21.683594 -24.855469 28.804688 -28.234375 28.804688 -33.175781 C 28.804688 -36.917969 25.945312 -38.476562 22.828125 -38.476562 C 16.742188 -38.476562 12.53125 -34.371094 11.542969 -28.234375 C 11.128906 -25.789062 11.335938 -23.191406 11.90625 -20.589844 C 6.292969 -17.78125 2.601562 -15.183594 2.601562 -9.410156 Z M 12.167969 -19.65625 C 14.089844 -12.425781 19.34375 -5.40625 25.113281 -2.027344 C 23.292969 -1.246094 21.164062 -0.78125 18.667969 -0.78125 C 11.648438 -0.78125 8.164062 -5.71875 8.164062 -12.0625 C 8.164062 -15.546875 9.515625 -17.730469 12.167969 -19.65625 Z M 16.066406 -30.316406 C 16.691406 -34.996094 18.667969 -37.90625 22.828125 -37.90625 C 25.269531 -37.90625 26.570312 -35.878906 26.570312 -33.175781 C 26.570312 -28.753906 20.851562 -25.0625 16.484375 -22.878906 C 15.910156 -25.324219 15.753906 -27.871094 16.066406 -30.316406 Z M 16.066406 -30.316406 "/></g></g></g><g fill="#f49617" fill-opacity="1"><g transform="translate(212.241853, 299.551651)"><g><path d="M 2.601562 0 L 3.277344 0 C 3.277344 -1.300781 4.160156 -1.820312 5.667969 -1.820312 C 8.164062 -1.820312 9.878906 0.625 15.546875 0.625 C 24.335938 0.625 27.089844 -3.742188 27.089844 -9.046875 C 27.089844 -20.175781 8.371094 -21.839844 8.371094 -32.03125 C 8.371094 -35.046875 10.035156 -37.28125 14.195312 -37.28125 C 19.96875 -37.28125 24.335938 -32.601562 24.335938 -25.636719 L 25.011719 -25.636719 L 25.011719 -37.90625 L 24.335938 -37.90625 C 24.335938 -36.347656 23.917969 -35.828125 22.566406 -35.828125 C 20.433594 -35.828125 18.769531 -38.476562 13.46875 -38.476562 C 8.371094 -38.476562 2.652344 -35.566406 2.652344 -29.535156 C 2.652344 -19.5 21.890625 -15.546875 21.890625 -6.914062 C 21.890625 -2.289062 18.5625 -0.675781 14.664062 -0.675781 C 8.269531 -0.675781 3.277344 -5.199219 3.277344 -15.597656 L 2.601562 -15.597656 Z M 2.601562 0 "/></g></g></g><g fill="#f49617" fill-opacity="1"><g transform="translate(139.687495, 321.351687)"><g><path d="M 7.6875 -7.703125 L 7.6875 0 L 6.890625 0 L 6.890625 -3.546875 L 2.0625 -3.546875 L 2.0625 0 L 1.25 0 L 1.25 -7.703125 L 2.0625 -7.703125 L 2.0625 -4.265625 L 6.890625 -4.265625 L 6.890625 -7.703125 Z M 7.6875 -7.703125 "/></g></g></g><g fill="#f49617" fill-opacity="1"><g transform="translate(148.624175, 321.351687)"><g><path d="M 3.453125 0.0625 C 2.898438 0.0625 2.398438 -0.0625 1.953125 -0.3125 C 1.503906 -0.570312 1.148438 -0.925781 0.890625 -1.375 C 0.628906 -1.820312 0.5 -2.328125 0.5 -2.890625 C 0.5 -3.453125 0.628906 -3.957031 0.890625 -4.40625 C 1.148438 -4.851562 1.503906 -5.203125 1.953125 -5.453125 C 2.398438 -5.703125 2.898438 -5.828125 3.453125 -5.828125 C 4.015625 -5.828125 4.515625 -5.703125 4.953125 -5.453125 C 5.398438 -5.203125 5.75 -4.851562 6 -4.40625 C 6.257812 -3.957031 6.390625 -3.453125 6.390625 -2.890625 C 6.390625 -2.328125 6.257812 -1.820312 6 -1.375 C 5.75 -0.925781 5.398438 -0.570312 4.953125 -0.3125 C 4.515625 -0.0625 4.015625 0.0625 3.453125 0.0625 Z M 3.453125 -0.640625 C 3.859375 -0.640625 4.222656 -0.734375 4.546875 -0.921875 C 4.878906 -1.109375 5.132812 -1.375 5.3125 -1.71875 C 5.5 -2.0625 5.59375 -2.453125 5.59375 -2.890625 C 5.59375 -3.328125 5.5 -3.71875 5.3125 -4.0625 C 5.132812 -4.414062 4.878906 -4.679688 4.546875 -4.859375 C 4.222656 -5.046875 3.859375 -5.140625 3.453125 -5.140625 C 3.046875 -5.140625 2.675781 -5.046875 2.34375 -4.859375 C 2.019531 -4.679688 1.765625 -4.414062 1.578125 -4.0625 C 1.390625 -3.71875 1.296875 -3.328125 1.296875 -2.890625 C 1.296875 -2.453125 1.390625 -2.0625 1.578125 -1.71875 C 1.765625 -1.375 2.019531 -1.109375 2.34375 -0.921875 C 2.675781 -0.734375 3.046875 -0.640625 3.453125 -0.640625 Z M 3.453125 -0.640625 "/></g></g></g><g fill="#f49617" fill-opacity="1"><g transform="translate(155.516298, 321.351687)"><g><path d="M 1.09375 -8.15625 L 1.875 -8.15625 L 1.875 0 L 1.09375 0 Z M 1.09375 -8.15625 "/></g></g></g><g fill="#f49617" fill-opacity="1"><g transform="translate(158.473211, 321.351687)"><g><path d="M 6.375 -8.15625 L 6.375 0 L 5.625 0 L 5.625 -1.140625 C 5.382812 -0.753906 5.070312 -0.457031 4.6875 -0.25 C 4.300781 -0.0390625 3.867188 0.0625 3.390625 0.0625 C 2.847656 0.0625 2.351562 -0.0625 1.90625 -0.3125 C 1.46875 -0.5625 1.125 -0.910156 0.875 -1.359375 C 0.625 -1.804688 0.5 -2.316406 0.5 -2.890625 C 0.5 -3.460938 0.625 -3.972656 0.875 -4.421875 C 1.125 -4.867188 1.46875 -5.210938 1.90625 -5.453125 C 2.351562 -5.703125 2.847656 -5.828125 3.390625 -5.828125 C 3.859375 -5.828125 4.28125 -5.726562 4.65625 -5.53125 C 5.03125 -5.34375 5.34375 -5.0625 5.59375 -4.6875 L 5.59375 -8.15625 Z M 3.453125 -0.640625 C 3.859375 -0.640625 4.222656 -0.734375 4.546875 -0.921875 C 4.867188 -1.109375 5.125 -1.375 5.3125 -1.71875 C 5.5 -2.0625 5.59375 -2.453125 5.59375 -2.890625 C 5.59375 -3.328125 5.5 -3.71875 5.3125 -4.0625 C 5.125 -4.414062 4.867188 -4.679688 4.546875 -4.859375 C 4.222656 -5.046875 3.859375 -5.140625 3.453125 -5.140625 C 3.046875 -5.140625 2.675781 -5.046875 2.34375 -4.859375 C 2.019531 -4.679688 1.765625 -4.414062 1.578125 -4.0625 C 1.390625 -3.71875 1.296875 -3.328125 1.296875 -2.890625 C 1.296875 -2.453125 1.390625 -2.0625 1.578125 -1.71875 C 1.765625 -1.375 2.019531 -1.109375 2.34375 -0.921875 C 2.675781 -0.734375 3.046875 -0.640625 3.453125 -0.640625 Z M 3.453125 -0.640625 "/></g></g></g><g fill="#f49617" fill-opacity="1"><g transform="translate(165.925947, 321.351687)"><g><path d="M 1.09375 -5.78125 L 1.875 -5.78125 L 1.875 0 L 1.09375 0 Z M 1.484375 -7.046875 C 1.316406 -7.046875 1.175781 -7.097656 1.0625 -7.203125 C 0.957031 -7.316406 0.90625 -7.453125 0.90625 -7.609375 C 0.90625 -7.753906 0.957031 -7.878906 1.0625 -7.984375 C 1.175781 -8.097656 1.316406 -8.15625 1.484375 -8.15625 C 1.640625 -8.15625 1.769531 -8.101562 1.875 -8 C 1.988281 -7.894531 2.046875 -7.769531 2.046875 -7.625 C 2.046875 -7.457031 1.988281 -7.316406 1.875 -7.203125 C 1.769531 -7.097656 1.640625 -7.046875 1.484375 -7.046875 Z M 1.484375 -7.046875 "/></g></g></g><g fill="#f49617" fill-opacity="1"><g transform="translate(168.882859, 321.351687)"><g><path d="M 4.03125 -5.828125 C 4.757812 -5.828125 5.335938 -5.613281 5.765625 -5.1875 C 6.191406 -4.769531 6.40625 -4.160156 6.40625 -3.359375 L 6.40625 0 L 5.625 0 L 5.625 -3.28125 C 5.625 -3.882812 5.472656 -4.34375 5.171875 -4.65625 C 4.878906 -4.96875 4.453125 -5.125 3.890625 -5.125 C 3.265625 -5.125 2.769531 -4.9375 2.40625 -4.5625 C 2.050781 -4.195312 1.875 -3.6875 1.875 -3.03125 L 1.875 0 L 1.09375 0 L 1.09375 -5.78125 L 1.84375 -5.78125 L 1.84375 -4.71875 C 2.050781 -5.070312 2.34375 -5.34375 2.71875 -5.53125 C 3.09375 -5.726562 3.53125 -5.828125 4.03125 -5.828125 Z M 4.03125 -5.828125 "/></g></g></g><g fill="#f49617" fill-opacity="1"><g transform="translate(176.324597, 321.351687)"><g><path d="M 6.453125 -5.78125 L 6.453125 -0.703125 C 6.453125 0.273438 6.207031 1 5.71875 1.46875 C 5.238281 1.945312 4.515625 2.1875 3.546875 2.1875 C 3.015625 2.1875 2.507812 2.109375 2.03125 1.953125 C 1.550781 1.796875 1.160156 1.578125 0.859375 1.296875 L 1.25 0.703125 C 1.53125 0.953125 1.867188 1.144531 2.265625 1.28125 C 2.671875 1.425781 3.09375 1.5 3.53125 1.5 C 4.257812 1.5 4.796875 1.328125 5.140625 0.984375 C 5.492188 0.640625 5.671875 0.109375 5.671875 -0.609375 L 5.671875 -1.34375 C 5.421875 -0.976562 5.097656 -0.695312 4.703125 -0.5 C 4.316406 -0.3125 3.882812 -0.21875 3.40625 -0.21875 C 2.863281 -0.21875 2.367188 -0.335938 1.921875 -0.578125 C 1.484375 -0.816406 1.132812 -1.148438 0.875 -1.578125 C 0.625 -2.003906 0.5 -2.488281 0.5 -3.03125 C 0.5 -3.570312 0.625 -4.054688 0.875 -4.484375 C 1.132812 -4.910156 1.484375 -5.238281 1.921875 -5.46875 C 2.359375 -5.707031 2.851562 -5.828125 3.40625 -5.828125 C 3.894531 -5.828125 4.335938 -5.726562 4.734375 -5.53125 C 5.128906 -5.332031 5.453125 -5.046875 5.703125 -4.671875 L 5.703125 -5.78125 Z M 3.484375 -0.90625 C 3.898438 -0.90625 4.273438 -0.992188 4.609375 -1.171875 C 4.953125 -1.359375 5.21875 -1.613281 5.40625 -1.9375 C 5.59375 -2.257812 5.6875 -2.625 5.6875 -3.03125 C 5.6875 -3.445312 5.59375 -3.8125 5.40625 -4.125 C 5.21875 -4.445312 4.957031 -4.695312 4.625 -4.875 C 4.289062 -5.050781 3.910156 -5.140625 3.484375 -5.140625 C 3.066406 -5.140625 2.691406 -5.050781 2.359375 -4.875 C 2.023438 -4.707031 1.765625 -4.460938 1.578125 -4.140625 C 1.390625 -3.816406 1.296875 -3.445312 1.296875 -3.03125 C 1.296875 -2.625 1.390625 -2.257812 1.578125 -1.9375 C 1.765625 -1.613281 2.023438 -1.359375 2.359375 -1.171875 C 2.691406 -0.992188 3.066406 -0.90625 3.484375 -0.90625 Z M 3.484375 -0.90625 "/></g></g></g><g fill="#f49617" fill-opacity="1"><g transform="translate(183.865269, 321.351687)"><g/></g></g><g fill="#f49617" fill-opacity="1"><g transform="translate(186.745232, 321.351687)"><g><path d="M 3.375 0.0625 C 2.800781 0.0625 2.253906 -0.0234375 1.734375 -0.203125 C 1.210938 -0.390625 0.804688 -0.632812 0.515625 -0.9375 L 0.84375 -1.5625 C 1.113281 -1.28125 1.476562 -1.050781 1.9375 -0.875 C 2.40625 -0.707031 2.882812 -0.625 3.375 -0.625 C 4.0625 -0.625 4.578125 -0.75 4.921875 -1 C 5.265625 -1.257812 5.4375 -1.585938 5.4375 -1.984375 C 5.4375 -2.296875 5.34375 -2.539062 5.15625 -2.71875 C 4.976562 -2.90625 4.75 -3.046875 4.46875 -3.140625 C 4.195312 -3.242188 3.820312 -3.351562 3.34375 -3.46875 C 2.757812 -3.625 2.296875 -3.769531 1.953125 -3.90625 C 1.609375 -4.039062 1.3125 -4.242188 1.0625 -4.515625 C 0.820312 -4.796875 0.703125 -5.175781 0.703125 -5.65625 C 0.703125 -6.039062 0.800781 -6.390625 1 -6.703125 C 1.207031 -7.023438 1.523438 -7.28125 1.953125 -7.46875 C 2.378906 -7.664062 2.910156 -7.765625 3.546875 -7.765625 C 3.984375 -7.765625 4.410156 -7.703125 4.828125 -7.578125 C 5.253906 -7.460938 5.617188 -7.296875 5.921875 -7.078125 L 5.65625 -6.4375 C 5.332031 -6.644531 4.984375 -6.800781 4.609375 -6.90625 C 4.242188 -7.019531 3.890625 -7.078125 3.546875 -7.078125 C 2.867188 -7.078125 2.359375 -6.945312 2.015625 -6.6875 C 1.671875 -6.425781 1.5 -6.085938 1.5 -5.671875 C 1.5 -5.367188 1.59375 -5.125 1.78125 -4.9375 C 1.96875 -4.75 2.203125 -4.601562 2.484375 -4.5 C 2.773438 -4.40625 3.15625 -4.300781 3.625 -4.1875 C 4.195312 -4.039062 4.65625 -3.898438 5 -3.765625 C 5.34375 -3.628906 5.632812 -3.421875 5.875 -3.140625 C 6.125 -2.867188 6.25 -2.5 6.25 -2.03125 C 6.25 -1.644531 6.144531 -1.289062 5.9375 -0.96875 C 5.726562 -0.65625 5.40625 -0.40625 4.96875 -0.21875 C 4.539062 -0.03125 4.007812 0.0625 3.375 0.0625 Z M 3.375 0.0625 "/></g></g></g><g fill="#f49617" fill-opacity="1"><g transform="translate(193.505451, 321.351687)"><g><path d="M 4.0625 -5.828125 C 4.613281 -5.828125 5.109375 -5.703125 5.546875 -5.453125 C 5.984375 -5.210938 6.328125 -4.867188 6.578125 -4.421875 C 6.828125 -3.972656 6.953125 -3.460938 6.953125 -2.890625 C 6.953125 -2.316406 6.828125 -1.804688 6.578125 -1.359375 C 6.328125 -0.910156 5.984375 -0.5625 5.546875 -0.3125 C 5.109375 -0.0625 4.613281 0.0625 4.0625 0.0625 C 3.59375 0.0625 3.171875 -0.0351562 2.796875 -0.234375 C 2.421875 -0.429688 2.113281 -0.71875 1.875 -1.09375 L 1.875 2.140625 L 1.09375 2.140625 L 1.09375 -5.78125 L 1.84375 -5.78125 L 1.84375 -4.640625 C 2.070312 -5.023438 2.378906 -5.316406 2.765625 -5.515625 C 3.148438 -5.722656 3.582031 -5.828125 4.0625 -5.828125 Z M 4.015625 -0.640625 C 4.421875 -0.640625 4.785156 -0.734375 5.109375 -0.921875 C 5.441406 -1.109375 5.703125 -1.375 5.890625 -1.71875 C 6.078125 -2.0625 6.171875 -2.453125 6.171875 -2.890625 C 6.171875 -3.328125 6.078125 -3.71875 5.890625 -4.0625 C 5.703125 -4.40625 5.441406 -4.671875 5.109375 -4.859375 C 4.785156 -5.046875 4.421875 -5.140625 4.015625 -5.140625 C 3.609375 -5.140625 3.238281 -5.046875 2.90625 -4.859375 C 2.582031 -4.671875 2.328125 -4.40625 2.140625 -4.0625 C 1.953125 -3.71875 1.859375 -3.328125 1.859375 -2.890625 C 1.859375 -2.453125 1.953125 -2.0625 2.140625 -1.71875 C 2.328125 -1.375 2.582031 -1.109375 2.90625 -0.921875 C 3.238281 -0.734375 3.609375 -0.640625 4.015625 -0.640625 Z M 4.015625 -0.640625 "/></g></g></g><g fill="#f49617" fill-opacity="1"><g transform="translate(200.958186, 321.351687)"><g><path d="M 1.171875 0.0625 C 1.003906 0.0625 0.863281 0.00390625 0.75 -0.109375 C 0.632812 -0.234375 0.578125 -0.378906 0.578125 -0.546875 C 0.578125 -0.710938 0.632812 -0.851562 0.75 -0.96875 C 0.863281 -1.082031 1.003906 -1.140625 1.171875 -1.140625 C 1.328125 -1.140625 1.460938 -1.082031 1.578125 -0.96875 C 1.703125 -0.851562 1.765625 -0.710938 1.765625 -0.546875 C 1.765625 -0.378906 1.703125 -0.234375 1.578125 -0.109375 C 1.460938 0.00390625 1.328125 0.0625 1.171875 0.0625 Z M 1.171875 0.0625 "/></g></g></g><g fill="#f49617" fill-opacity="1"><g transform="translate(203.288535, 321.351687)"><g/></g></g><g fill="#f49617" fill-opacity="1"><g transform="translate(206.168498, 321.351687)"><g><path d="M 5.171875 -0.65625 L 5.171875 0 L 0.46875 0 L 0.46875 -0.515625 L 4.109375 -5.125 L 0.53125 -5.125 L 0.53125 -5.78125 L 5.109375 -5.78125 L 5.109375 -5.265625 L 1.46875 -0.65625 Z M 5.171875 -0.65625 "/></g></g></g><g fill="#f49617" fill-opacity="1"><g transform="translate(211.785521, 321.351687)"><g/></g></g><g fill="#f49617" fill-opacity="1"><g transform="translate(214.665484, 321.351687)"><g><path d="M 3.453125 0.0625 C 2.898438 0.0625 2.398438 -0.0625 1.953125 -0.3125 C 1.503906 -0.570312 1.148438 -0.925781 0.890625 -1.375 C 0.628906 -1.820312 0.5 -2.328125 0.5 -2.890625 C 0.5 -3.453125 0.628906 -3.957031 0.890625 -4.40625 C 1.148438 -4.851562 1.503906 -5.203125 1.953125 -5.453125 C 2.398438 -5.703125 2.898438 -5.828125 3.453125 -5.828125 C 4.015625 -5.828125 4.515625 -5.703125 4.953125 -5.453125 C 5.398438 -5.203125 5.75 -4.851562 6 -4.40625 C 6.257812 -3.957031 6.390625 -3.453125 6.390625 -2.890625 C 6.390625 -2.328125 6.257812 -1.820312 6 -1.375 C 5.75 -0.925781 5.398438 -0.570312 4.953125 -0.3125 C 4.515625 -0.0625 4.015625 0.0625 3.453125 0.0625 Z M 3.453125 -0.640625 C 3.859375 -0.640625 4.222656 -0.734375 4.546875 -0.921875 C 4.878906 -1.109375 5.132812 -1.375 5.3125 -1.71875 C 5.5 -2.0625 5.59375 -2.453125 5.59375 -2.890625 C 5.59375 -3.328125 5.5 -3.71875 5.3125 -4.0625 C 5.132812 -4.414062 4.878906 -4.679688 4.546875 -4.859375 C 4.222656 -5.046875 3.859375 -5.140625 3.453125 -5.140625 C 3.046875 -5.140625 2.675781 -5.046875 2.34375 -4.859375 C 2.019531 -4.679688 1.765625 -4.414062 1.578125 -4.0625 C 1.390625 -3.71875 1.296875 -3.328125 1.296875 -2.890625 C 1.296875 -2.453125 1.390625 -2.0625 1.578125 -1.71875 C 1.765625 -1.375 2.019531 -1.109375 2.34375 -0.921875 C 2.675781 -0.734375 3.046875 -0.640625 3.453125 -0.640625 Z M 3.453125 -0.640625 "/></g></g></g><g fill="#f49617" fill-opacity="1"><g transform="translate(221.557607, 321.351687)"><g><path d="M 1.171875 0.0625 C 1.003906 0.0625 0.863281 0.00390625 0.75 -0.109375 C 0.632812 -0.234375 0.578125 -0.378906 0.578125 -0.546875 C 0.578125 -0.710938 0.632812 -0.851562 0.75 -0.96875 C 0.863281 -1.082031 1.003906 -1.140625 1.171875 -1.140625 C 1.328125 -1.140625 1.460938 -1.082031 1.578125 -0.96875 C 1.703125 -0.851562 1.765625 -0.710938 1.765625 -0.546875 C 1.765625 -0.378906 1.703125 -0.234375 1.578125 -0.109375 C 1.460938 0.00390625 1.328125 0.0625 1.171875 0.0625 Z M 1.171875 0.0625 "/></g></g></g><g fill="#f49617" fill-opacity="1"><g transform="translate(223.887956, 321.351687)"><g><path d="M 3.453125 0.0625 C 2.898438 0.0625 2.398438 -0.0625 1.953125 -0.3125 C 1.503906 -0.570312 1.148438 -0.925781 0.890625 -1.375 C 0.628906 -1.820312 0.5 -2.328125 0.5 -2.890625 C 0.5 -3.453125 0.628906 -3.957031 0.890625 -4.40625 C 1.148438 -4.851562 1.503906 -5.203125 1.953125 -5.453125 C 2.398438 -5.703125 2.898438 -5.828125 3.453125 -5.828125 C 4.015625 -5.828125 4.515625 -5.703125 4.953125 -5.453125 C 5.398438 -5.203125 5.75 -4.851562 6 -4.40625 C 6.257812 -3.957031 6.390625 -3.453125 6.390625 -2.890625 C 6.390625 -2.328125 6.257812 -1.820312 6 -1.375 C 5.75 -0.925781 5.398438 -0.570312 4.953125 -0.3125 C 4.515625 -0.0625 4.015625 0.0625 3.453125 0.0625 Z M 3.453125 -0.640625 C 3.859375 -0.640625 4.222656 -0.734375 4.546875 -0.921875 C 4.878906 -1.109375 5.132812 -1.375 5.3125 -1.71875 C 5.5 -2.0625 5.59375 -2.453125 5.59375 -2.890625 C 5.59375 -3.328125 5.5 -3.71875 5.3125 -4.0625 C 5.132812 -4.414062 4.878906 -4.679688 4.546875 -4.859375 C 4.222656 -5.046875 3.859375 -5.140625 3.453125 -5.140625 C 3.046875 -5.140625 2.675781 -5.046875 2.34375 -4.859375 C 2.019531 -4.679688 1.765625 -4.414062 1.578125 -4.0625 C 1.390625 -3.71875 1.296875 -3.328125 1.296875 -2.890625 C 1.296875 -2.453125 1.390625 -2.0625 1.578125 -1.71875 C 1.765625 -1.375 2.019531 -1.109375 2.34375 -0.921875 C 2.675781 -0.734375 3.046875 -0.640625 3.453125 -0.640625 Z M 3.453125 -0.640625 "/></g></g></g><g fill="#f49617" fill-opacity="1"><g transform="translate(230.78008, 321.351687)"><g><path d="M 1.171875 0.0625 C 1.003906 0.0625 0.863281 0.00390625 0.75 -0.109375 C 0.632812 -0.234375 0.578125 -0.378906 0.578125 -0.546875 C 0.578125 -0.710938 0.632812 -0.851562 0.75 -0.96875 C 0.863281 -1.082031 1.003906 -1.140625 1.171875 -1.140625 C 1.328125 -1.140625 1.460938 -1.082031 1.578125 -0.96875 C 1.703125 -0.851562 1.765625 -0.710938 1.765625 -0.546875 C 1.765625 -0.378906 1.703125 -0.234375 1.578125 -0.109375 C 1.460938 0.00390625 1.328125 0.0625 1.171875 0.0625 Z M 1.171875 0.0625 "/></g></g></g></svg>